G04 #@! TF.GenerationSoftware,KiCad,Pcbnew,(5.1.0-0)*
G04 #@! TF.CreationDate,2019-11-19T21:44:26-07:00*
G04 #@! TF.ProjectId,rick-bottle,7269636b-2d62-46f7-9474-6c652e6b6963,rev?*
G04 #@! TF.SameCoordinates,Original*
G04 #@! TF.FileFunction,Legend,Bot*
G04 #@! TF.FilePolarity,Positive*
%FSLAX46Y46*%
G04 Gerber Fmt 4.6, Leading zero omitted, Abs format (unit mm)*
G04 Created by KiCad (PCBNEW (5.1.0-0)) date 2019-11-19 21:44:26*
%MOMM*%
%LPD*%
G04 APERTURE LIST*
G04 #@! TA.AperFunction,NonConductor*
%ADD10C,0.010000*%
G04 #@! TD*
G04 APERTURE END LIST*
D10*
G04 #@! TO.C,G\002A\002A\002A*
X41102648Y-18010486D02*
X41353784Y-18015546D01*
X41353784Y-18015546D02*
X41573518Y-18025258D01*
X41573518Y-18025258D02*
X41771493Y-18040323D01*
X41771493Y-18040323D02*
X41957358Y-18061440D01*
X41957358Y-18061440D02*
X42140758Y-18089306D01*
X42140758Y-18089306D02*
X42290600Y-18116622D01*
X42290600Y-18116622D02*
X42638781Y-18200888D01*
X42638781Y-18200888D02*
X42948084Y-18310467D01*
X42948084Y-18310467D02*
X43217419Y-18443923D01*
X43217419Y-18443923D02*
X43445698Y-18599820D01*
X43445698Y-18599820D02*
X43631832Y-18776723D01*
X43631832Y-18776723D02*
X43774733Y-18973195D01*
X43774733Y-18973195D02*
X43873312Y-19187801D01*
X43873312Y-19187801D02*
X43926481Y-19419105D01*
X43926481Y-19419105D02*
X43933151Y-19665671D01*
X43933151Y-19665671D02*
X43892233Y-19926062D01*
X43892233Y-19926062D02*
X43825361Y-20141094D01*
X43825361Y-20141094D02*
X43729007Y-20349472D01*
X43729007Y-20349472D02*
X43600110Y-20557028D01*
X43600110Y-20557028D02*
X43445972Y-20756267D01*
X43445972Y-20756267D02*
X43273894Y-20939697D01*
X43273894Y-20939697D02*
X43091180Y-21099821D01*
X43091180Y-21099821D02*
X42905132Y-21229147D01*
X42905132Y-21229147D02*
X42723052Y-21320180D01*
X42723052Y-21320180D02*
X42653096Y-21344155D01*
X42653096Y-21344155D02*
X42537117Y-21378100D01*
X42537117Y-21378100D02*
X42552874Y-23156100D01*
X42552874Y-23156100D02*
X42556010Y-23476603D01*
X42556010Y-23476603D02*
X42559735Y-23800841D01*
X42559735Y-23800841D02*
X42563940Y-24122220D01*
X42563940Y-24122220D02*
X42568515Y-24434148D01*
X42568515Y-24434148D02*
X42573352Y-24730030D01*
X42573352Y-24730030D02*
X42578340Y-25003274D01*
X42578340Y-25003274D02*
X42583371Y-25247286D01*
X42583371Y-25247286D02*
X42588335Y-25455472D01*
X42588335Y-25455472D02*
X42593123Y-25621240D01*
X42593123Y-25621240D02*
X42594376Y-25658000D01*
X42594376Y-25658000D02*
X42631680Y-26629679D01*
X42631680Y-26629679D02*
X42672932Y-27555901D01*
X42672932Y-27555901D02*
X42718426Y-28441879D01*
X42718426Y-28441879D02*
X42768455Y-29292824D01*
X42768455Y-29292824D02*
X42823312Y-30113947D01*
X42823312Y-30113947D02*
X42883292Y-30910461D01*
X42883292Y-30910461D02*
X42904967Y-31177359D01*
X42904967Y-31177359D02*
X42986497Y-32162819D01*
X42986497Y-32162819D02*
X43236789Y-32341517D01*
X43236789Y-32341517D02*
X43363716Y-32433953D01*
X43363716Y-32433953D02*
X43509493Y-32542934D01*
X43509493Y-32542934D02*
X43653551Y-32652963D01*
X43653551Y-32652963D02*
X43746090Y-32725263D01*
X43746090Y-32725263D02*
X43863993Y-32823896D01*
X43863993Y-32823896D02*
X44006580Y-32951576D01*
X44006580Y-32951576D02*
X44165581Y-33100138D01*
X44165581Y-33100138D02*
X44332726Y-33261413D01*
X44332726Y-33261413D02*
X44499747Y-33427233D01*
X44499747Y-33427233D02*
X44658372Y-33589432D01*
X44658372Y-33589432D02*
X44800332Y-33739842D01*
X44800332Y-33739842D02*
X44917357Y-33870295D01*
X44917357Y-33870295D02*
X44974431Y-33938400D01*
X44974431Y-33938400D02*
X45389709Y-34491853D01*
X45389709Y-34491853D02*
X45764360Y-35069505D01*
X45764360Y-35069505D02*
X46096695Y-35667757D01*
X46096695Y-35667757D02*
X46385024Y-36283010D01*
X46385024Y-36283010D02*
X46627655Y-36911664D01*
X46627655Y-36911664D02*
X46822900Y-37550120D01*
X46822900Y-37550120D02*
X46966325Y-38180200D01*
X46966325Y-38180200D02*
X47021541Y-38472300D01*
X47021541Y-38472300D02*
X46992503Y-43590400D01*
X46992503Y-43590400D02*
X46988708Y-44291468D01*
X46988708Y-44291468D02*
X46985192Y-45006057D01*
X46985192Y-45006057D02*
X46981956Y-45731779D01*
X46981956Y-45731779D02*
X46978998Y-46466244D01*
X46978998Y-46466244D02*
X46976321Y-47207064D01*
X46976321Y-47207064D02*
X46973923Y-47951851D01*
X46973923Y-47951851D02*
X46971804Y-48698214D01*
X46971804Y-48698214D02*
X46969965Y-49443767D01*
X46969965Y-49443767D02*
X46968407Y-50186119D01*
X46968407Y-50186119D02*
X46967128Y-50922882D01*
X46967128Y-50922882D02*
X46966129Y-51651668D01*
X46966129Y-51651668D02*
X46965411Y-52370088D01*
X46965411Y-52370088D02*
X46964973Y-53075753D01*
X46964973Y-53075753D02*
X46964815Y-53766274D01*
X46964815Y-53766274D02*
X46964937Y-54439263D01*
X46964937Y-54439263D02*
X46965340Y-55092330D01*
X46965340Y-55092330D02*
X46966024Y-55723088D01*
X46966024Y-55723088D02*
X46966989Y-56329147D01*
X46966989Y-56329147D02*
X46968234Y-56908119D01*
X46968234Y-56908119D02*
X46969761Y-57457615D01*
X46969761Y-57457615D02*
X46971568Y-57975246D01*
X46971568Y-57975246D02*
X46973657Y-58458623D01*
X46973657Y-58458623D02*
X46976027Y-58905359D01*
X46976027Y-58905359D02*
X46978678Y-59313063D01*
X46978678Y-59313063D02*
X46981611Y-59679348D01*
X46981611Y-59679348D02*
X46984825Y-60001824D01*
X46984825Y-60001824D02*
X46988321Y-60278104D01*
X46988321Y-60278104D02*
X46991812Y-60490789D01*
X46991812Y-60490789D02*
X46998085Y-60815436D01*
X46998085Y-60815436D02*
X47003356Y-61093490D01*
X47003356Y-61093490D02*
X47007103Y-61329154D01*
X47007103Y-61329154D02*
X47008802Y-61526634D01*
X47008802Y-61526634D02*
X47007930Y-61690133D01*
X47007930Y-61690133D02*
X47003964Y-61823855D01*
X47003964Y-61823855D02*
X46996382Y-61932006D01*
X46996382Y-61932006D02*
X46984659Y-62018789D01*
X46984659Y-62018789D02*
X46968273Y-62088408D01*
X46968273Y-62088408D02*
X46946700Y-62145069D01*
X46946700Y-62145069D02*
X46919419Y-62192974D01*
X46919419Y-62192974D02*
X46885905Y-62236329D01*
X46885905Y-62236329D02*
X46845636Y-62279338D01*
X46845636Y-62279338D02*
X46798088Y-62326205D01*
X46798088Y-62326205D02*
X46758615Y-62365136D01*
X46758615Y-62365136D02*
X46554326Y-62542466D01*
X46554326Y-62542466D02*
X46302740Y-62714700D01*
X46302740Y-62714700D02*
X46007199Y-62880780D01*
X46007199Y-62880780D02*
X45671045Y-63039647D01*
X45671045Y-63039647D02*
X45297619Y-63190245D01*
X45297619Y-63190245D02*
X44890265Y-63331514D01*
X44890265Y-63331514D02*
X44452323Y-63462398D01*
X44452323Y-63462398D02*
X43987136Y-63581838D01*
X43987136Y-63581838D02*
X43498046Y-63688777D01*
X43498046Y-63688777D02*
X42988396Y-63782157D01*
X42988396Y-63782157D02*
X42461526Y-63860919D01*
X42461526Y-63860919D02*
X41920779Y-63924007D01*
X41920779Y-63924007D02*
X41795300Y-63936142D01*
X41795300Y-63936142D02*
X41700191Y-63942831D01*
X41700191Y-63942831D02*
X41565078Y-63949348D01*
X41565078Y-63949348D02*
X41398335Y-63955538D01*
X41398335Y-63955538D02*
X41208337Y-63961246D01*
X41208337Y-63961246D02*
X41003459Y-63966319D01*
X41003459Y-63966319D02*
X40792076Y-63970601D01*
X40792076Y-63970601D02*
X40582563Y-63973938D01*
X40582563Y-63973938D02*
X40383294Y-63976175D01*
X40383294Y-63976175D02*
X40202645Y-63977159D01*
X40202645Y-63977159D02*
X40048991Y-63976734D01*
X40048991Y-63976734D02*
X39930707Y-63974745D01*
X39930707Y-63974745D02*
X39864900Y-63971761D01*
X39864900Y-63971761D02*
X39449608Y-63938866D01*
X39449608Y-63938866D02*
X39076384Y-63904483D01*
X39076384Y-63904483D02*
X38736497Y-63867326D01*
X38736497Y-63867326D02*
X38421215Y-63826109D01*
X38421215Y-63826109D02*
X38121807Y-63779545D01*
X38121807Y-63779545D02*
X37829542Y-63726349D01*
X37829542Y-63726349D02*
X37535687Y-63665234D01*
X37535687Y-63665234D02*
X37231512Y-63594916D01*
X37231512Y-63594916D02*
X37118490Y-63567271D01*
X37118490Y-63567271D02*
X36630046Y-63434823D01*
X36630046Y-63434823D02*
X36174503Y-63288045D01*
X36174503Y-63288045D02*
X35757476Y-63128916D01*
X35757476Y-63128916D02*
X35384581Y-62959415D01*
X35384581Y-62959415D02*
X35361287Y-62947724D01*
X35361287Y-62947724D02*
X35140456Y-62824954D01*
X35140456Y-62824954D02*
X34935347Y-62689227D01*
X34935347Y-62689227D02*
X34752923Y-62546361D01*
X34752923Y-62546361D02*
X34600151Y-62402174D01*
X34600151Y-62402174D02*
X34483996Y-62262486D01*
X34483996Y-62262486D02*
X34426322Y-62166687D01*
X34426322Y-62166687D02*
X34358496Y-62028057D01*
X34358496Y-62028057D02*
X34185928Y-58848078D01*
X34185928Y-58848078D02*
X34121111Y-57642012D01*
X34121111Y-57642012D02*
X34060207Y-56484299D01*
X34060207Y-56484299D02*
X34003129Y-55372649D01*
X34003129Y-55372649D02*
X33949791Y-54304774D01*
X33949791Y-54304774D02*
X33900104Y-53278384D01*
X33900104Y-53278384D02*
X33853982Y-52291190D01*
X33853982Y-52291190D02*
X33811338Y-51340903D01*
X33811338Y-51340903D02*
X33772084Y-50425234D01*
X33772084Y-50425234D02*
X33736134Y-49541892D01*
X33736134Y-49541892D02*
X33703400Y-48688589D01*
X33703400Y-48688589D02*
X33673796Y-47863037D01*
X33673796Y-47863037D02*
X33647234Y-47062944D01*
X33647234Y-47062944D02*
X33623626Y-46286023D01*
X33623626Y-46286023D02*
X33602887Y-45529983D01*
X33602887Y-45529983D02*
X33584928Y-44792537D01*
X33584928Y-44792537D02*
X33569662Y-44071393D01*
X33569662Y-44071393D02*
X33557004Y-43364264D01*
X33557004Y-43364264D02*
X33546864Y-42668860D01*
X33546864Y-42668860D02*
X33539157Y-41982891D01*
X33539157Y-41982891D02*
X33537598Y-41812400D01*
X33537598Y-41812400D02*
X33533659Y-41273907D01*
X33533659Y-41273907D02*
X33531745Y-40783081D01*
X33531745Y-40783081D02*
X33531970Y-40336823D01*
X33531970Y-40336823D02*
X33534447Y-39932037D01*
X33534447Y-39932037D02*
X33539288Y-39565625D01*
X33539288Y-39565625D02*
X33546606Y-39234489D01*
X33546606Y-39234489D02*
X33556513Y-38935532D01*
X33556513Y-38935532D02*
X33569123Y-38665655D01*
X33569123Y-38665655D02*
X33584549Y-38421763D01*
X33584549Y-38421763D02*
X33602901Y-38200756D01*
X33602901Y-38200756D02*
X33624295Y-37999538D01*
X33624295Y-37999538D02*
X33648841Y-37815010D01*
X33648841Y-37815010D02*
X33676653Y-37644076D01*
X33676653Y-37644076D02*
X33692295Y-37560298D01*
X33692295Y-37560298D02*
X33825444Y-37008276D01*
X33825444Y-37008276D02*
X34007752Y-36462202D01*
X34007752Y-36462202D02*
X34237671Y-35924939D01*
X34237671Y-35924939D02*
X34513655Y-35399349D01*
X34513655Y-35399349D02*
X34834156Y-34888294D01*
X34834156Y-34888294D02*
X35197627Y-34394637D01*
X35197627Y-34394637D02*
X35602520Y-33921239D01*
X35602520Y-33921239D02*
X35736508Y-33778733D01*
X35736508Y-33778733D02*
X36056894Y-33461965D01*
X36056894Y-33461965D02*
X36403118Y-33149734D01*
X36403118Y-33149734D02*
X36766696Y-32848480D01*
X36766696Y-32848480D02*
X37139142Y-32564647D01*
X37139142Y-32564647D02*
X37511971Y-32304677D01*
X37511971Y-32304677D02*
X37876697Y-32075013D01*
X37876697Y-32075013D02*
X38224836Y-31882096D01*
X38224836Y-31882096D02*
X38254161Y-31867211D01*
X38254161Y-31867211D02*
X38429800Y-31778761D01*
X38429800Y-31778761D02*
X38429599Y-31353630D01*
X38429599Y-31353630D02*
X38429127Y-31281773D01*
X38429127Y-31281773D02*
X38427787Y-31162097D01*
X38427787Y-31162097D02*
X38425626Y-30997572D01*
X38425626Y-30997572D02*
X38422693Y-30791170D01*
X38422693Y-30791170D02*
X38419035Y-30545864D01*
X38419035Y-30545864D02*
X38414700Y-30264625D01*
X38414700Y-30264625D02*
X38409736Y-29950424D01*
X38409736Y-29950424D02*
X38404191Y-29606234D01*
X38404191Y-29606234D02*
X38398113Y-29235027D01*
X38398113Y-29235027D02*
X38391549Y-28839773D01*
X38391549Y-28839773D02*
X38384548Y-28423446D01*
X38384548Y-28423446D02*
X38377157Y-27989016D01*
X38377157Y-27989016D02*
X38369424Y-27539455D01*
X38369424Y-27539455D02*
X38361397Y-27077735D01*
X38361397Y-27077735D02*
X38353637Y-26635900D01*
X38353637Y-26635900D02*
X38345388Y-26166507D01*
X38345388Y-26166507D02*
X38337385Y-25707100D01*
X38337385Y-25707100D02*
X38329676Y-25260603D01*
X38329676Y-25260603D02*
X38322307Y-24829939D01*
X38322307Y-24829939D02*
X38315328Y-24418029D01*
X38315328Y-24418029D02*
X38308785Y-24027797D01*
X38308785Y-24027797D02*
X38302727Y-23662165D01*
X38302727Y-23662165D02*
X38297201Y-23324057D01*
X38297201Y-23324057D02*
X38292255Y-23016394D01*
X38292255Y-23016394D02*
X38287937Y-22742100D01*
X38287937Y-22742100D02*
X38284294Y-22504098D01*
X38284294Y-22504098D02*
X38281375Y-22305310D01*
X38281375Y-22305310D02*
X38279228Y-22148660D01*
X38279228Y-22148660D02*
X38277899Y-22037068D01*
X38277899Y-22037068D02*
X38277438Y-21975000D01*
X38277438Y-21975000D02*
X38277002Y-21606700D01*
X38277002Y-21606700D02*
X38015772Y-21523537D01*
X38015772Y-21523537D02*
X37723810Y-21412746D01*
X37723810Y-21412746D02*
X37469212Y-21276475D01*
X37469212Y-21276475D02*
X37242636Y-21109224D01*
X37242636Y-21109224D02*
X37121624Y-20997100D01*
X37121624Y-20997100D02*
X36950387Y-20802694D01*
X36950387Y-20802694D02*
X36826503Y-20606532D01*
X36826503Y-20606532D02*
X36746811Y-20401508D01*
X36746811Y-20401508D02*
X36708145Y-20180516D01*
X36708145Y-20180516D02*
X36703202Y-20057300D01*
X36703202Y-20057300D02*
X36720092Y-19834894D01*
X36720092Y-19834894D02*
X36772950Y-19628050D01*
X36772950Y-19628050D02*
X36865060Y-19429735D01*
X36865060Y-19429735D02*
X36999706Y-19232919D01*
X36999706Y-19232919D02*
X37180171Y-19030568D01*
X37180171Y-19030568D02*
X37184903Y-19025777D01*
X37184903Y-19025777D02*
X37404634Y-18826192D01*
X37404634Y-18826192D02*
X37642067Y-18656393D01*
X37642067Y-18656393D02*
X37908515Y-18509124D01*
X37908515Y-18509124D02*
X38167304Y-18395828D01*
X38167304Y-18395828D02*
X38438704Y-18297275D01*
X38438704Y-18297275D02*
X38716994Y-18214910D01*
X38716994Y-18214910D02*
X39008444Y-18147817D01*
X39008444Y-18147817D02*
X39319324Y-18095080D01*
X39319324Y-18095080D02*
X39655905Y-18055782D01*
X39655905Y-18055782D02*
X40024457Y-18029006D01*
X40024457Y-18029006D02*
X40431250Y-18013835D01*
X40431250Y-18013835D02*
X40810462Y-18009382D01*
X40810462Y-18009382D02*
X41102648Y-18010486D01*
X41102648Y-18010486D02*
X41102648Y-18010486D01*
G04 #@! TD*
M02*
