G04 #@! TF.GenerationSoftware,KiCad,Pcbnew,(5.1.0-0)*
G04 #@! TF.CreationDate,2019-11-19T19:36:27-07:00*
G04 #@! TF.ProjectId,XMas-V3,584d6173-2d56-4332-9e6b-696361645f70,rev?*
G04 #@! TF.SameCoordinates,Original*
G04 #@! TF.FileFunction,Legend,Top*
G04 #@! TF.FilePolarity,Positive*
%FSLAX46Y46*%
G04 Gerber Fmt 4.6, Leading zero omitted, Abs format (unit mm)*
G04 Created by KiCad (PCBNEW (5.1.0-0)) date 2019-11-19 19:36:27*
%MOMM*%
%LPD*%
G04 APERTURE LIST*
%ADD10C,0.010000*%
G04 #@! TA.AperFunction,NonConductor*
%ADD11C,0.010000*%
G04 #@! TD*
G04 APERTURE END LIST*
D10*
G04 #@! TO.C,S\002A\002A\002A*
G36*
X-7707044Y54783439D02*
G01*
X-7469068Y54779914D01*
X-7259353Y54772953D01*
X-7110770Y54764215D01*
X-6332360Y54684124D01*
X-5585629Y54564337D01*
X-4870580Y54404856D01*
X-4187221Y54205684D01*
X-3535554Y53966821D01*
X-2915585Y53688270D01*
X-2327320Y53370033D01*
X-1770763Y53012111D01*
X-1245919Y52614507D01*
X-1096557Y52489126D01*
X-865174Y52274006D01*
X-670680Y52058893D01*
X-515389Y51847270D01*
X-401615Y51642616D01*
X-331671Y51448412D01*
X-308894Y51304100D01*
X-304831Y51211306D01*
X-309475Y51151660D01*
X-328548Y51107598D01*
X-367771Y51061553D01*
X-397750Y51031274D01*
X-522220Y50939705D01*
X-672977Y50888586D01*
X-851677Y50877677D01*
X-1059974Y50906733D01*
X-1130300Y50923683D01*
X-1240662Y50954941D01*
X-1349234Y50991261D01*
X-1461457Y51035384D01*
X-1582769Y51090053D01*
X-1718611Y51158012D01*
X-1874420Y51242004D01*
X-2055637Y51344770D01*
X-2267701Y51469055D01*
X-2516052Y51617601D01*
X-2565400Y51647352D01*
X-3224741Y52022812D01*
X-3879896Y52351089D01*
X-4529866Y52631865D01*
X-5173648Y52864824D01*
X-5810243Y53049650D01*
X-6438650Y53186026D01*
X-7057869Y53273636D01*
X-7666898Y53312163D01*
X-7835900Y53314112D01*
X-8389125Y53294669D01*
X-8940636Y53235687D01*
X-9494116Y53136183D01*
X-10053249Y52995173D01*
X-10621717Y52811675D01*
X-11203204Y52584706D01*
X-11801392Y52313283D01*
X-12052300Y52188938D01*
X-12447255Y51981137D01*
X-12836334Y51760756D01*
X-13226846Y51523132D01*
X-13626098Y51263597D01*
X-14041397Y50977489D01*
X-14480052Y50660140D01*
X-14678012Y50512659D01*
X-14899241Y50354300D01*
X-15093919Y50232830D01*
X-15267876Y50145996D01*
X-15426941Y50091543D01*
X-15576944Y50067217D01*
X-15723713Y50070766D01*
X-15793364Y50081446D01*
X-15844754Y50105001D01*
X-15911552Y50152774D01*
X-15949186Y50185937D01*
X-16030222Y50289727D01*
X-16078965Y50417827D01*
X-16095763Y50574096D01*
X-16080963Y50762396D01*
X-16034915Y50986589D01*
X-16024826Y51025467D01*
X-15925055Y51305696D01*
X-15775191Y51585829D01*
X-15575938Y51865230D01*
X-15328001Y52143261D01*
X-15032082Y52419285D01*
X-14688886Y52692665D01*
X-14299118Y52962762D01*
X-13863480Y53228941D01*
X-13382678Y53490563D01*
X-13199553Y53583070D01*
X-12543992Y53884076D01*
X-11879402Y54141013D01*
X-11199976Y54355600D01*
X-10499909Y54529552D01*
X-9773396Y54664587D01*
X-9334500Y54726140D01*
X-9175260Y54741925D01*
X-8975139Y54755458D01*
X-8744016Y54766572D01*
X-8491767Y54775095D01*
X-8228271Y54780861D01*
X-7963404Y54783698D01*
X-7707044Y54783439D01*
X-7707044Y54783439D01*
G37*
X-7707044Y54783439D02*
X-7469068Y54779914D01*
X-7259353Y54772953D01*
X-7110770Y54764215D01*
X-6332360Y54684124D01*
X-5585629Y54564337D01*
X-4870580Y54404856D01*
X-4187221Y54205684D01*
X-3535554Y53966821D01*
X-2915585Y53688270D01*
X-2327320Y53370033D01*
X-1770763Y53012111D01*
X-1245919Y52614507D01*
X-1096557Y52489126D01*
X-865174Y52274006D01*
X-670680Y52058893D01*
X-515389Y51847270D01*
X-401615Y51642616D01*
X-331671Y51448412D01*
X-308894Y51304100D01*
X-304831Y51211306D01*
X-309475Y51151660D01*
X-328548Y51107598D01*
X-367771Y51061553D01*
X-397750Y51031274D01*
X-522220Y50939705D01*
X-672977Y50888586D01*
X-851677Y50877677D01*
X-1059974Y50906733D01*
X-1130300Y50923683D01*
X-1240662Y50954941D01*
X-1349234Y50991261D01*
X-1461457Y51035384D01*
X-1582769Y51090053D01*
X-1718611Y51158012D01*
X-1874420Y51242004D01*
X-2055637Y51344770D01*
X-2267701Y51469055D01*
X-2516052Y51617601D01*
X-2565400Y51647352D01*
X-3224741Y52022812D01*
X-3879896Y52351089D01*
X-4529866Y52631865D01*
X-5173648Y52864824D01*
X-5810243Y53049650D01*
X-6438650Y53186026D01*
X-7057869Y53273636D01*
X-7666898Y53312163D01*
X-7835900Y53314112D01*
X-8389125Y53294669D01*
X-8940636Y53235687D01*
X-9494116Y53136183D01*
X-10053249Y52995173D01*
X-10621717Y52811675D01*
X-11203204Y52584706D01*
X-11801392Y52313283D01*
X-12052300Y52188938D01*
X-12447255Y51981137D01*
X-12836334Y51760756D01*
X-13226846Y51523132D01*
X-13626098Y51263597D01*
X-14041397Y50977489D01*
X-14480052Y50660140D01*
X-14678012Y50512659D01*
X-14899241Y50354300D01*
X-15093919Y50232830D01*
X-15267876Y50145996D01*
X-15426941Y50091543D01*
X-15576944Y50067217D01*
X-15723713Y50070766D01*
X-15793364Y50081446D01*
X-15844754Y50105001D01*
X-15911552Y50152774D01*
X-15949186Y50185937D01*
X-16030222Y50289727D01*
X-16078965Y50417827D01*
X-16095763Y50574096D01*
X-16080963Y50762396D01*
X-16034915Y50986589D01*
X-16024826Y51025467D01*
X-15925055Y51305696D01*
X-15775191Y51585829D01*
X-15575938Y51865230D01*
X-15328001Y52143261D01*
X-15032082Y52419285D01*
X-14688886Y52692665D01*
X-14299118Y52962762D01*
X-13863480Y53228941D01*
X-13382678Y53490563D01*
X-13199553Y53583070D01*
X-12543992Y53884076D01*
X-11879402Y54141013D01*
X-11199976Y54355600D01*
X-10499909Y54529552D01*
X-9773396Y54664587D01*
X-9334500Y54726140D01*
X-9175260Y54741925D01*
X-8975139Y54755458D01*
X-8744016Y54766572D01*
X-8491767Y54775095D01*
X-8228271Y54780861D01*
X-7963404Y54783698D01*
X-7707044Y54783439D01*
G36*
X-1594115Y47594482D02*
G01*
X-1224521Y47538650D01*
X-871851Y47455289D01*
X-825500Y47441753D01*
X-363899Y47277891D01*
X83002Y47068457D01*
X510362Y46817051D01*
X913337Y46527274D01*
X1287086Y46202725D01*
X1626765Y45847004D01*
X1927533Y45463711D01*
X2021982Y45324828D01*
X2260141Y44918704D01*
X2456062Y44492179D01*
X2610726Y44042205D01*
X2725115Y43565736D01*
X2800211Y43059722D01*
X2819358Y42849800D01*
X2833314Y42466670D01*
X2819527Y42071290D01*
X2779628Y41674055D01*
X2715244Y41285362D01*
X2628008Y40915606D01*
X2519547Y40575181D01*
X2427455Y40350178D01*
X2248050Y40010570D01*
X2023498Y39674329D01*
X1759431Y39346317D01*
X1461479Y39031398D01*
X1135276Y38734435D01*
X786451Y38460290D01*
X420636Y38213827D01*
X43463Y37999907D01*
X-339437Y37823396D01*
X-615965Y37722052D01*
X-1042421Y37603478D01*
X-1491839Y37515827D01*
X-1950130Y37460764D01*
X-2403208Y37439958D01*
X-2836983Y37455075D01*
X-2857500Y37456768D01*
X-3335478Y37514229D01*
X-3797566Y37603178D01*
X-4238011Y37721781D01*
X-4651060Y37868201D01*
X-5030958Y38040602D01*
X-5371953Y38237147D01*
X-5435600Y38279618D01*
X-5766512Y38534905D01*
X-6079879Y38834404D01*
X-6372129Y39173485D01*
X-6639687Y39547519D01*
X-6878981Y39951876D01*
X-7086437Y40381926D01*
X-7120326Y40462200D01*
X-7303208Y40943609D01*
X-7443692Y41401048D01*
X-7542329Y41837682D01*
X-7599665Y42256679D01*
X-7605901Y42408782D01*
X-2956560Y42408782D01*
X-2938917Y42313794D01*
X-2885809Y42254771D01*
X-2796970Y42231576D01*
X-2672134Y42244072D01*
X-2647950Y42249581D01*
X-2591968Y42259868D01*
X-2569567Y42245676D01*
X-2565405Y42196193D01*
X-2565400Y42191419D01*
X-2544610Y42107719D01*
X-2490898Y42043300D01*
X-2417252Y42012478D01*
X-2402249Y42011600D01*
X-2343362Y42027605D01*
X-2275489Y42067201D01*
X-2261331Y42078384D01*
X-2181964Y42145167D01*
X-2124395Y42091084D01*
X-2042937Y42044402D01*
X-1955043Y42040450D01*
X-1873623Y42074984D01*
X-1811588Y42143760D01*
X-1788593Y42201454D01*
X-1763228Y42250277D01*
X-1710576Y42265436D01*
X-1700890Y42265600D01*
X-1622542Y42287759D01*
X-1564159Y42344687D01*
X-1532638Y42422064D01*
X-1534875Y42505569D01*
X-1559563Y42559069D01*
X-1582172Y42604963D01*
X-1568170Y42646167D01*
X-1559563Y42658476D01*
X-1530902Y42716497D01*
X-1524000Y42753055D01*
X-1543495Y42807656D01*
X-1590112Y42864726D01*
X-1646050Y42903013D01*
X-1651183Y42904895D01*
X-1667654Y42923461D01*
X-1655809Y42966630D01*
X-1641658Y42995708D01*
X-1606645Y43099438D01*
X-1603981Y43201224D01*
X-1633179Y43284854D01*
X-1651000Y43307000D01*
X-1709353Y43348765D01*
X-1772466Y43352324D01*
X-1852774Y43320438D01*
X-1900795Y43298389D01*
X-1924231Y43305597D01*
X-1937687Y43350974D01*
X-1942280Y43375060D01*
X-1973544Y43457221D01*
X-2028553Y43533529D01*
X-2094360Y43589788D01*
X-2158014Y43611800D01*
X-2158201Y43611800D01*
X-2213011Y43594518D01*
X-2271137Y43552748D01*
X-2273012Y43550898D01*
X-2338719Y43500034D01*
X-2405207Y43467034D01*
X-2471989Y43423518D01*
X-2514600Y43363896D01*
X-2543274Y43314246D01*
X-2578913Y43291306D01*
X-2640267Y43285602D01*
X-2669003Y43285880D01*
X-2752827Y43280903D01*
X-2823210Y43265838D01*
X-2839871Y43258839D01*
X-2908979Y43197705D01*
X-2937349Y43117690D01*
X-2925038Y43030182D01*
X-2872105Y42946567D01*
X-2838096Y42915600D01*
X-2789015Y42872245D01*
X-2776778Y42841830D01*
X-2792233Y42813830D01*
X-2813037Y42758402D01*
X-2811970Y42703896D01*
X-2811722Y42648644D01*
X-2842066Y42600399D01*
X-2877561Y42567895D01*
X-2933805Y42507978D01*
X-2955079Y42441743D01*
X-2956560Y42408782D01*
X-7605901Y42408782D01*
X-7616250Y42661202D01*
X-7592633Y43054418D01*
X-7583043Y43132664D01*
X-7496358Y43601314D01*
X-7364558Y44047294D01*
X-7188511Y44469185D01*
X-6969088Y44865573D01*
X-6707157Y45235039D01*
X-6403589Y45576167D01*
X-6059254Y45887541D01*
X-5751087Y46116947D01*
X-5315135Y46407482D01*
X-4910894Y46662640D01*
X-4535250Y46884029D01*
X-4185089Y47073257D01*
X-3857299Y47231934D01*
X-3548766Y47361666D01*
X-3256375Y47464062D01*
X-3009900Y47532849D01*
X-2688527Y47591968D01*
X-2337710Y47621624D01*
X-1969042Y47622301D01*
X-1594115Y47594482D01*
X-1594115Y47594482D01*
G37*
X-1594115Y47594482D02*
X-1224521Y47538650D01*
X-871851Y47455289D01*
X-825500Y47441753D01*
X-363899Y47277891D01*
X83002Y47068457D01*
X510362Y46817051D01*
X913337Y46527274D01*
X1287086Y46202725D01*
X1626765Y45847004D01*
X1927533Y45463711D01*
X2021982Y45324828D01*
X2260141Y44918704D01*
X2456062Y44492179D01*
X2610726Y44042205D01*
X2725115Y43565736D01*
X2800211Y43059722D01*
X2819358Y42849800D01*
X2833314Y42466670D01*
X2819527Y42071290D01*
X2779628Y41674055D01*
X2715244Y41285362D01*
X2628008Y40915606D01*
X2519547Y40575181D01*
X2427455Y40350178D01*
X2248050Y40010570D01*
X2023498Y39674329D01*
X1759431Y39346317D01*
X1461479Y39031398D01*
X1135276Y38734435D01*
X786451Y38460290D01*
X420636Y38213827D01*
X43463Y37999907D01*
X-339437Y37823396D01*
X-615965Y37722052D01*
X-1042421Y37603478D01*
X-1491839Y37515827D01*
X-1950130Y37460764D01*
X-2403208Y37439958D01*
X-2836983Y37455075D01*
X-2857500Y37456768D01*
X-3335478Y37514229D01*
X-3797566Y37603178D01*
X-4238011Y37721781D01*
X-4651060Y37868201D01*
X-5030958Y38040602D01*
X-5371953Y38237147D01*
X-5435600Y38279618D01*
X-5766512Y38534905D01*
X-6079879Y38834404D01*
X-6372129Y39173485D01*
X-6639687Y39547519D01*
X-6878981Y39951876D01*
X-7086437Y40381926D01*
X-7120326Y40462200D01*
X-7303208Y40943609D01*
X-7443692Y41401048D01*
X-7542329Y41837682D01*
X-7599665Y42256679D01*
X-7605901Y42408782D01*
X-2956560Y42408782D01*
X-2938917Y42313794D01*
X-2885809Y42254771D01*
X-2796970Y42231576D01*
X-2672134Y42244072D01*
X-2647950Y42249581D01*
X-2591968Y42259868D01*
X-2569567Y42245676D01*
X-2565405Y42196193D01*
X-2565400Y42191419D01*
X-2544610Y42107719D01*
X-2490898Y42043300D01*
X-2417252Y42012478D01*
X-2402249Y42011600D01*
X-2343362Y42027605D01*
X-2275489Y42067201D01*
X-2261331Y42078384D01*
X-2181964Y42145167D01*
X-2124395Y42091084D01*
X-2042937Y42044402D01*
X-1955043Y42040450D01*
X-1873623Y42074984D01*
X-1811588Y42143760D01*
X-1788593Y42201454D01*
X-1763228Y42250277D01*
X-1710576Y42265436D01*
X-1700890Y42265600D01*
X-1622542Y42287759D01*
X-1564159Y42344687D01*
X-1532638Y42422064D01*
X-1534875Y42505569D01*
X-1559563Y42559069D01*
X-1582172Y42604963D01*
X-1568170Y42646167D01*
X-1559563Y42658476D01*
X-1530902Y42716497D01*
X-1524000Y42753055D01*
X-1543495Y42807656D01*
X-1590112Y42864726D01*
X-1646050Y42903013D01*
X-1651183Y42904895D01*
X-1667654Y42923461D01*
X-1655809Y42966630D01*
X-1641658Y42995708D01*
X-1606645Y43099438D01*
X-1603981Y43201224D01*
X-1633179Y43284854D01*
X-1651000Y43307000D01*
X-1709353Y43348765D01*
X-1772466Y43352324D01*
X-1852774Y43320438D01*
X-1900795Y43298389D01*
X-1924231Y43305597D01*
X-1937687Y43350974D01*
X-1942280Y43375060D01*
X-1973544Y43457221D01*
X-2028553Y43533529D01*
X-2094360Y43589788D01*
X-2158014Y43611800D01*
X-2158201Y43611800D01*
X-2213011Y43594518D01*
X-2271137Y43552748D01*
X-2273012Y43550898D01*
X-2338719Y43500034D01*
X-2405207Y43467034D01*
X-2471989Y43423518D01*
X-2514600Y43363896D01*
X-2543274Y43314246D01*
X-2578913Y43291306D01*
X-2640267Y43285602D01*
X-2669003Y43285880D01*
X-2752827Y43280903D01*
X-2823210Y43265838D01*
X-2839871Y43258839D01*
X-2908979Y43197705D01*
X-2937349Y43117690D01*
X-2925038Y43030182D01*
X-2872105Y42946567D01*
X-2838096Y42915600D01*
X-2789015Y42872245D01*
X-2776778Y42841830D01*
X-2792233Y42813830D01*
X-2813037Y42758402D01*
X-2811970Y42703896D01*
X-2811722Y42648644D01*
X-2842066Y42600399D01*
X-2877561Y42567895D01*
X-2933805Y42507978D01*
X-2955079Y42441743D01*
X-2956560Y42408782D01*
X-7605901Y42408782D01*
X-7616250Y42661202D01*
X-7592633Y43054418D01*
X-7583043Y43132664D01*
X-7496358Y43601314D01*
X-7364558Y44047294D01*
X-7188511Y44469185D01*
X-6969088Y44865573D01*
X-6707157Y45235039D01*
X-6403589Y45576167D01*
X-6059254Y45887541D01*
X-5751087Y46116947D01*
X-5315135Y46407482D01*
X-4910894Y46662640D01*
X-4535250Y46884029D01*
X-4185089Y47073257D01*
X-3857299Y47231934D01*
X-3548766Y47361666D01*
X-3256375Y47464062D01*
X-3009900Y47532849D01*
X-2688527Y47591968D01*
X-2337710Y47621624D01*
X-1969042Y47622301D01*
X-1594115Y47594482D01*
G36*
X-12731418Y46291550D02*
G01*
X-12363195Y46269643D01*
X-11960290Y46232838D01*
X-11576885Y46188866D01*
X-11232002Y46142223D01*
X-10930426Y46092291D01*
X-10664685Y46037211D01*
X-10427308Y45975120D01*
X-10210820Y45904157D01*
X-10007750Y45822461D01*
X-9893300Y45769488D01*
X-9628496Y45622319D01*
X-9390967Y45448589D01*
X-9173462Y45241685D01*
X-8968729Y44994996D01*
X-8836040Y44805600D01*
X-8592062Y44389801D01*
X-8390430Y43946252D01*
X-8231221Y43475381D01*
X-8114509Y42977614D01*
X-8040371Y42453376D01*
X-8008882Y41903094D01*
X-8020118Y41327194D01*
X-8074155Y40726102D01*
X-8089717Y40605760D01*
X-8139571Y40261111D01*
X-8190271Y39960389D01*
X-8243571Y39696731D01*
X-8301228Y39463272D01*
X-8364996Y39253148D01*
X-8436632Y39059495D01*
X-8517889Y38875448D01*
X-8547893Y38814097D01*
X-8743400Y38472512D01*
X-8976349Y38155855D01*
X-9249653Y37861007D01*
X-9566227Y37584850D01*
X-9928984Y37324264D01*
X-9956800Y37306125D01*
X-10275439Y37118458D01*
X-10631809Y36941871D01*
X-11013202Y36781432D01*
X-11406905Y36642210D01*
X-11800210Y36529273D01*
X-12045788Y36473140D01*
X-12234565Y36443626D01*
X-12459816Y36423003D01*
X-12707936Y36411655D01*
X-12965314Y36409969D01*
X-13218343Y36418331D01*
X-13423900Y36434035D01*
X-13786699Y36476161D01*
X-14106288Y36525818D01*
X-14389930Y36584777D01*
X-14644887Y36654809D01*
X-14878422Y36737685D01*
X-15097797Y36835177D01*
X-15125700Y36849039D01*
X-15471947Y37049930D01*
X-15807940Y37298379D01*
X-16130997Y37591716D01*
X-16438435Y37927267D01*
X-16727572Y38302358D01*
X-16992902Y38709600D01*
X-17086085Y38872600D01*
X-17189956Y39066787D01*
X-17298729Y39280249D01*
X-17406620Y39501073D01*
X-17507844Y39717347D01*
X-17596616Y39917157D01*
X-17667151Y40088591D01*
X-17683630Y40132000D01*
X-17735288Y40276221D01*
X-17771278Y40392315D01*
X-17795810Y40498907D01*
X-17813093Y40614621D01*
X-17827336Y40758081D01*
X-17828684Y40773830D01*
X-17854780Y41334513D01*
X-17838557Y41841999D01*
X-14676125Y41841999D01*
X-14642498Y41754224D01*
X-14616308Y41720398D01*
X-14575751Y41671873D01*
X-14568142Y41640439D01*
X-14589453Y41608351D01*
X-14590591Y41607090D01*
X-14627222Y41551725D01*
X-14657230Y41485018D01*
X-14665836Y41390810D01*
X-14631115Y41305002D01*
X-14560200Y41241875D01*
X-14528857Y41228026D01*
X-14469301Y41213039D01*
X-14414799Y41217502D01*
X-14350748Y41245540D01*
X-14262551Y41301278D01*
X-14257524Y41304677D01*
X-14194622Y41345847D01*
X-14150774Y41371874D01*
X-14139628Y41376600D01*
X-14125535Y41355197D01*
X-14111808Y41312454D01*
X-14068546Y41220007D01*
X-14001323Y41165975D01*
X-13920661Y41153351D01*
X-13837081Y41185129D01*
X-13794155Y41222108D01*
X-13738195Y41270660D01*
X-13697208Y41277476D01*
X-13688714Y41273297D01*
X-13605670Y41248082D01*
X-13515962Y41263728D01*
X-13433595Y41314690D01*
X-13372573Y41395424D01*
X-13370785Y41399170D01*
X-13320508Y41479758D01*
X-13256225Y41551678D01*
X-13251261Y41556005D01*
X-13190334Y41634511D01*
X-13175153Y41720534D01*
X-13203324Y41805359D01*
X-13272455Y41880275D01*
X-13352872Y41926054D01*
X-13400947Y41949407D01*
X-13422877Y41976917D01*
X-13425672Y42025381D01*
X-13419436Y42085518D01*
X-13413621Y42165475D01*
X-13423954Y42217058D01*
X-13456122Y42261607D01*
X-13470260Y42276169D01*
X-13528074Y42320358D01*
X-13582515Y42341494D01*
X-13587846Y42341800D01*
X-13629755Y42351433D01*
X-13639800Y42365252D01*
X-13654878Y42398071D01*
X-13692392Y42450729D01*
X-13705558Y42466852D01*
X-13784213Y42530878D01*
X-13867613Y42544807D01*
X-13951711Y42508576D01*
X-13993003Y42471367D01*
X-14041985Y42425944D01*
X-14089499Y42407569D01*
X-14158557Y42408783D01*
X-14179320Y42410982D01*
X-14256332Y42415569D01*
X-14306483Y42402314D01*
X-14352618Y42363849D01*
X-14364503Y42351265D01*
X-14410409Y42289590D01*
X-14423079Y42227098D01*
X-14419394Y42183050D01*
X-14413690Y42120954D01*
X-14426769Y42094206D01*
X-14469866Y42087921D01*
X-14491274Y42087800D01*
X-14577143Y42066379D01*
X-14639323Y42010194D01*
X-14673692Y41931361D01*
X-14676125Y41841999D01*
X-17838557Y41841999D01*
X-17837294Y41881499D01*
X-17776743Y42411553D01*
X-17673642Y42921439D01*
X-17528506Y43407922D01*
X-17341852Y43867766D01*
X-17332323Y43888123D01*
X-17113281Y44299128D01*
X-16861401Y44671471D01*
X-16576567Y45005240D01*
X-16258664Y45300522D01*
X-15907576Y45557405D01*
X-15523188Y45775976D01*
X-15105383Y45956323D01*
X-14654048Y46098534D01*
X-14312900Y46176456D01*
X-14006404Y46229538D01*
X-13702453Y46267555D01*
X-13393602Y46290540D01*
X-13072405Y46298527D01*
X-12731418Y46291550D01*
X-12731418Y46291550D01*
G37*
X-12731418Y46291550D02*
X-12363195Y46269643D01*
X-11960290Y46232838D01*
X-11576885Y46188866D01*
X-11232002Y46142223D01*
X-10930426Y46092291D01*
X-10664685Y46037211D01*
X-10427308Y45975120D01*
X-10210820Y45904157D01*
X-10007750Y45822461D01*
X-9893300Y45769488D01*
X-9628496Y45622319D01*
X-9390967Y45448589D01*
X-9173462Y45241685D01*
X-8968729Y44994996D01*
X-8836040Y44805600D01*
X-8592062Y44389801D01*
X-8390430Y43946252D01*
X-8231221Y43475381D01*
X-8114509Y42977614D01*
X-8040371Y42453376D01*
X-8008882Y41903094D01*
X-8020118Y41327194D01*
X-8074155Y40726102D01*
X-8089717Y40605760D01*
X-8139571Y40261111D01*
X-8190271Y39960389D01*
X-8243571Y39696731D01*
X-8301228Y39463272D01*
X-8364996Y39253148D01*
X-8436632Y39059495D01*
X-8517889Y38875448D01*
X-8547893Y38814097D01*
X-8743400Y38472512D01*
X-8976349Y38155855D01*
X-9249653Y37861007D01*
X-9566227Y37584850D01*
X-9928984Y37324264D01*
X-9956800Y37306125D01*
X-10275439Y37118458D01*
X-10631809Y36941871D01*
X-11013202Y36781432D01*
X-11406905Y36642210D01*
X-11800210Y36529273D01*
X-12045788Y36473140D01*
X-12234565Y36443626D01*
X-12459816Y36423003D01*
X-12707936Y36411655D01*
X-12965314Y36409969D01*
X-13218343Y36418331D01*
X-13423900Y36434035D01*
X-13786699Y36476161D01*
X-14106288Y36525818D01*
X-14389930Y36584777D01*
X-14644887Y36654809D01*
X-14878422Y36737685D01*
X-15097797Y36835177D01*
X-15125700Y36849039D01*
X-15471947Y37049930D01*
X-15807940Y37298379D01*
X-16130997Y37591716D01*
X-16438435Y37927267D01*
X-16727572Y38302358D01*
X-16992902Y38709600D01*
X-17086085Y38872600D01*
X-17189956Y39066787D01*
X-17298729Y39280249D01*
X-17406620Y39501073D01*
X-17507844Y39717347D01*
X-17596616Y39917157D01*
X-17667151Y40088591D01*
X-17683630Y40132000D01*
X-17735288Y40276221D01*
X-17771278Y40392315D01*
X-17795810Y40498907D01*
X-17813093Y40614621D01*
X-17827336Y40758081D01*
X-17828684Y40773830D01*
X-17854780Y41334513D01*
X-17838557Y41841999D01*
X-14676125Y41841999D01*
X-14642498Y41754224D01*
X-14616308Y41720398D01*
X-14575751Y41671873D01*
X-14568142Y41640439D01*
X-14589453Y41608351D01*
X-14590591Y41607090D01*
X-14627222Y41551725D01*
X-14657230Y41485018D01*
X-14665836Y41390810D01*
X-14631115Y41305002D01*
X-14560200Y41241875D01*
X-14528857Y41228026D01*
X-14469301Y41213039D01*
X-14414799Y41217502D01*
X-14350748Y41245540D01*
X-14262551Y41301278D01*
X-14257524Y41304677D01*
X-14194622Y41345847D01*
X-14150774Y41371874D01*
X-14139628Y41376600D01*
X-14125535Y41355197D01*
X-14111808Y41312454D01*
X-14068546Y41220007D01*
X-14001323Y41165975D01*
X-13920661Y41153351D01*
X-13837081Y41185129D01*
X-13794155Y41222108D01*
X-13738195Y41270660D01*
X-13697208Y41277476D01*
X-13688714Y41273297D01*
X-13605670Y41248082D01*
X-13515962Y41263728D01*
X-13433595Y41314690D01*
X-13372573Y41395424D01*
X-13370785Y41399170D01*
X-13320508Y41479758D01*
X-13256225Y41551678D01*
X-13251261Y41556005D01*
X-13190334Y41634511D01*
X-13175153Y41720534D01*
X-13203324Y41805359D01*
X-13272455Y41880275D01*
X-13352872Y41926054D01*
X-13400947Y41949407D01*
X-13422877Y41976917D01*
X-13425672Y42025381D01*
X-13419436Y42085518D01*
X-13413621Y42165475D01*
X-13423954Y42217058D01*
X-13456122Y42261607D01*
X-13470260Y42276169D01*
X-13528074Y42320358D01*
X-13582515Y42341494D01*
X-13587846Y42341800D01*
X-13629755Y42351433D01*
X-13639800Y42365252D01*
X-13654878Y42398071D01*
X-13692392Y42450729D01*
X-13705558Y42466852D01*
X-13784213Y42530878D01*
X-13867613Y42544807D01*
X-13951711Y42508576D01*
X-13993003Y42471367D01*
X-14041985Y42425944D01*
X-14089499Y42407569D01*
X-14158557Y42408783D01*
X-14179320Y42410982D01*
X-14256332Y42415569D01*
X-14306483Y42402314D01*
X-14352618Y42363849D01*
X-14364503Y42351265D01*
X-14410409Y42289590D01*
X-14423079Y42227098D01*
X-14419394Y42183050D01*
X-14413690Y42120954D01*
X-14426769Y42094206D01*
X-14469866Y42087921D01*
X-14491274Y42087800D01*
X-14577143Y42066379D01*
X-14639323Y42010194D01*
X-14673692Y41931361D01*
X-14676125Y41841999D01*
X-17838557Y41841999D01*
X-17837294Y41881499D01*
X-17776743Y42411553D01*
X-17673642Y42921439D01*
X-17528506Y43407922D01*
X-17341852Y43867766D01*
X-17332323Y43888123D01*
X-17113281Y44299128D01*
X-16861401Y44671471D01*
X-16576567Y45005240D01*
X-16258664Y45300522D01*
X-15907576Y45557405D01*
X-15523188Y45775976D01*
X-15105383Y45956323D01*
X-14654048Y46098534D01*
X-14312900Y46176456D01*
X-14006404Y46229538D01*
X-13702453Y46267555D01*
X-13393602Y46290540D01*
X-13072405Y46298527D01*
X-12731418Y46291550D01*
G36*
X-17604368Y19947577D02*
G01*
X-17560735Y19896160D01*
X-17551400Y19835746D01*
X-17555891Y19796493D01*
X-17572419Y19753714D01*
X-17605569Y19701227D01*
X-17659926Y19632852D01*
X-17740075Y19542408D01*
X-17850601Y19423714D01*
X-17880462Y19392126D01*
X-18204916Y19027333D01*
X-18485366Y18665032D01*
X-18720836Y18306937D01*
X-18910350Y17954768D01*
X-19052934Y17610241D01*
X-19147612Y17275073D01*
X-19176973Y17109467D01*
X-19196225Y16816028D01*
X-19172061Y16533809D01*
X-19106982Y16267287D01*
X-19003491Y16020940D01*
X-18864091Y15799244D01*
X-18691285Y15606676D01*
X-18487575Y15447713D01*
X-18255464Y15326832D01*
X-18161000Y15292033D01*
X-18016741Y15252508D01*
X-17842260Y15216659D01*
X-17658076Y15187789D01*
X-17484710Y15169202D01*
X-17365297Y15163950D01*
X-17275475Y15160467D01*
X-17216367Y15145808D01*
X-17168089Y15113316D01*
X-17143047Y15089554D01*
X-17091891Y15020360D01*
X-17070354Y14952049D01*
X-17080507Y14897701D01*
X-17108978Y14874418D01*
X-17159164Y14866258D01*
X-17245852Y14862511D01*
X-17354961Y14862914D01*
X-17472409Y14867206D01*
X-17584113Y14875126D01*
X-17665700Y14884767D01*
X-18006166Y14954792D01*
X-18309886Y15056128D01*
X-18581854Y15191129D01*
X-18827059Y15362145D01*
X-18989294Y15508356D01*
X-19157368Y15696797D01*
X-19287002Y15892871D01*
X-19381145Y16104408D01*
X-19442746Y16339242D01*
X-19474753Y16605204D01*
X-19481129Y16814800D01*
X-19458912Y17159889D01*
X-19391361Y17507764D01*
X-19277813Y17859867D01*
X-19117607Y18217640D01*
X-18910079Y18582526D01*
X-18654569Y18955966D01*
X-18350412Y19339403D01*
X-18287997Y19412431D01*
X-18128927Y19592921D01*
X-17996751Y19734661D01*
X-17888725Y19840164D01*
X-17802108Y19911938D01*
X-17734155Y19952496D01*
X-17685001Y19964400D01*
X-17604368Y19947577D01*
X-17604368Y19947577D01*
G37*
X-17604368Y19947577D02*
X-17560735Y19896160D01*
X-17551400Y19835746D01*
X-17555891Y19796493D01*
X-17572419Y19753714D01*
X-17605569Y19701227D01*
X-17659926Y19632852D01*
X-17740075Y19542408D01*
X-17850601Y19423714D01*
X-17880462Y19392126D01*
X-18204916Y19027333D01*
X-18485366Y18665032D01*
X-18720836Y18306937D01*
X-18910350Y17954768D01*
X-19052934Y17610241D01*
X-19147612Y17275073D01*
X-19176973Y17109467D01*
X-19196225Y16816028D01*
X-19172061Y16533809D01*
X-19106982Y16267287D01*
X-19003491Y16020940D01*
X-18864091Y15799244D01*
X-18691285Y15606676D01*
X-18487575Y15447713D01*
X-18255464Y15326832D01*
X-18161000Y15292033D01*
X-18016741Y15252508D01*
X-17842260Y15216659D01*
X-17658076Y15187789D01*
X-17484710Y15169202D01*
X-17365297Y15163950D01*
X-17275475Y15160467D01*
X-17216367Y15145808D01*
X-17168089Y15113316D01*
X-17143047Y15089554D01*
X-17091891Y15020360D01*
X-17070354Y14952049D01*
X-17080507Y14897701D01*
X-17108978Y14874418D01*
X-17159164Y14866258D01*
X-17245852Y14862511D01*
X-17354961Y14862914D01*
X-17472409Y14867206D01*
X-17584113Y14875126D01*
X-17665700Y14884767D01*
X-18006166Y14954792D01*
X-18309886Y15056128D01*
X-18581854Y15191129D01*
X-18827059Y15362145D01*
X-18989294Y15508356D01*
X-19157368Y15696797D01*
X-19287002Y15892871D01*
X-19381145Y16104408D01*
X-19442746Y16339242D01*
X-19474753Y16605204D01*
X-19481129Y16814800D01*
X-19458912Y17159889D01*
X-19391361Y17507764D01*
X-19277813Y17859867D01*
X-19117607Y18217640D01*
X-18910079Y18582526D01*
X-18654569Y18955966D01*
X-18350412Y19339403D01*
X-18287997Y19412431D01*
X-18128927Y19592921D01*
X-17996751Y19734661D01*
X-17888725Y19840164D01*
X-17802108Y19911938D01*
X-17734155Y19952496D01*
X-17685001Y19964400D01*
X-17604368Y19947577D01*
G36*
X14439562Y7145091D02*
G01*
X14532261Y7096319D01*
X14579081Y7061611D01*
X14645459Y7003486D01*
X14737087Y6915635D01*
X14845798Y6806594D01*
X14963426Y6684900D01*
X15081804Y6559090D01*
X15192765Y6437699D01*
X15288144Y6329264D01*
X15344920Y6261100D01*
X15593253Y5924833D01*
X15792600Y5595927D01*
X15942935Y5274924D01*
X16044233Y4962364D01*
X16096469Y4658788D01*
X16099616Y4364739D01*
X16053650Y4080756D01*
X15958545Y3807382D01*
X15814277Y3545157D01*
X15620819Y3294622D01*
X15490173Y3158843D01*
X15280323Y2977779D01*
X15049745Y2822339D01*
X14791128Y2688726D01*
X14497159Y2573141D01*
X14174759Y2475576D01*
X14026163Y2438667D01*
X13917167Y2419204D01*
X13839821Y2416757D01*
X13786176Y2430894D01*
X13755914Y2452915D01*
X13719943Y2520160D01*
X13727317Y2594615D01*
X13776350Y2659978D01*
X13777415Y2660823D01*
X13833357Y2692054D01*
X13919680Y2726562D01*
X14012365Y2755348D01*
X14331700Y2854924D01*
X14630552Y2976852D01*
X14902241Y3117474D01*
X15140082Y3273130D01*
X15337395Y3440162D01*
X15416475Y3524145D01*
X15506980Y3646609D01*
X15595570Y3797335D01*
X15672974Y3957947D01*
X15729920Y4110071D01*
X15749175Y4183528D01*
X15771791Y4373691D01*
X15769246Y4590510D01*
X15742942Y4817341D01*
X15694284Y5037541D01*
X15670693Y5114612D01*
X15589864Y5325232D01*
X15487827Y5531009D01*
X15360577Y5737607D01*
X15204109Y5950687D01*
X15014421Y6175911D01*
X14787508Y6418939D01*
X14650459Y6557220D01*
X14498050Y6710880D01*
X14381237Y6834218D01*
X14300762Y6926396D01*
X14257369Y6986582D01*
X14249400Y7008070D01*
X14266702Y7064557D01*
X14302401Y7114202D01*
X14364553Y7150746D01*
X14439562Y7145091D01*
X14439562Y7145091D01*
G37*
X14439562Y7145091D02*
X14532261Y7096319D01*
X14579081Y7061611D01*
X14645459Y7003486D01*
X14737087Y6915635D01*
X14845798Y6806594D01*
X14963426Y6684900D01*
X15081804Y6559090D01*
X15192765Y6437699D01*
X15288144Y6329264D01*
X15344920Y6261100D01*
X15593253Y5924833D01*
X15792600Y5595927D01*
X15942935Y5274924D01*
X16044233Y4962364D01*
X16096469Y4658788D01*
X16099616Y4364739D01*
X16053650Y4080756D01*
X15958545Y3807382D01*
X15814277Y3545157D01*
X15620819Y3294622D01*
X15490173Y3158843D01*
X15280323Y2977779D01*
X15049745Y2822339D01*
X14791128Y2688726D01*
X14497159Y2573141D01*
X14174759Y2475576D01*
X14026163Y2438667D01*
X13917167Y2419204D01*
X13839821Y2416757D01*
X13786176Y2430894D01*
X13755914Y2452915D01*
X13719943Y2520160D01*
X13727317Y2594615D01*
X13776350Y2659978D01*
X13777415Y2660823D01*
X13833357Y2692054D01*
X13919680Y2726562D01*
X14012365Y2755348D01*
X14331700Y2854924D01*
X14630552Y2976852D01*
X14902241Y3117474D01*
X15140082Y3273130D01*
X15337395Y3440162D01*
X15416475Y3524145D01*
X15506980Y3646609D01*
X15595570Y3797335D01*
X15672974Y3957947D01*
X15729920Y4110071D01*
X15749175Y4183528D01*
X15771791Y4373691D01*
X15769246Y4590510D01*
X15742942Y4817341D01*
X15694284Y5037541D01*
X15670693Y5114612D01*
X15589864Y5325232D01*
X15487827Y5531009D01*
X15360577Y5737607D01*
X15204109Y5950687D01*
X15014421Y6175911D01*
X14787508Y6418939D01*
X14650459Y6557220D01*
X14498050Y6710880D01*
X14381237Y6834218D01*
X14300762Y6926396D01*
X14257369Y6986582D01*
X14249400Y7008070D01*
X14266702Y7064557D01*
X14302401Y7114202D01*
X14364553Y7150746D01*
X14439562Y7145091D01*
G36*
X-16674781Y-9097394D02*
G01*
X-16635283Y-9161216D01*
X-16627555Y-9216499D01*
X-16643005Y-9287365D01*
X-16683878Y-9377877D01*
X-16752413Y-9492100D01*
X-16850853Y-9634097D01*
X-16981441Y-9807932D01*
X-17018093Y-9855200D01*
X-17117167Y-9985936D01*
X-17210919Y-10116222D01*
X-17292254Y-10235708D01*
X-17354077Y-10334045D01*
X-17383804Y-10388600D01*
X-17416795Y-10460550D01*
X-17438971Y-10521043D01*
X-17452448Y-10583143D01*
X-17459340Y-10659914D01*
X-17461761Y-10764422D01*
X-17461911Y-10871200D01*
X-17460928Y-11006255D01*
X-17457141Y-11103688D01*
X-17448412Y-11176669D01*
X-17432606Y-11238371D01*
X-17407583Y-11301966D01*
X-17383484Y-11354570D01*
X-17280154Y-11534360D01*
X-17152581Y-11680438D01*
X-16996341Y-11795387D01*
X-16807008Y-11881789D01*
X-16580157Y-11942226D01*
X-16313305Y-11979105D01*
X-16209076Y-11990635D01*
X-16140608Y-12005663D01*
X-16092890Y-12029401D01*
X-16050913Y-12067062D01*
X-16046484Y-12071762D01*
X-15996575Y-12143358D01*
X-15978133Y-12210677D01*
X-15992926Y-12261428D01*
X-16016778Y-12278182D01*
X-16062891Y-12285443D01*
X-16143452Y-12289246D01*
X-16242229Y-12289646D01*
X-16342991Y-12286700D01*
X-16429509Y-12280464D01*
X-16459200Y-12276642D01*
X-16684105Y-12226765D01*
X-16909833Y-12150631D01*
X-17123733Y-12054012D01*
X-17313156Y-11942678D01*
X-17465451Y-11822403D01*
X-17475018Y-11813188D01*
X-17630934Y-11626799D01*
X-17742667Y-11417807D01*
X-17809882Y-11189258D01*
X-17832243Y-10944201D01*
X-17809415Y-10685681D01*
X-17741065Y-10416747D01*
X-17652891Y-10195081D01*
X-17593014Y-10074570D01*
X-17522917Y-9947240D01*
X-17456565Y-9838305D01*
X-17448923Y-9826781D01*
X-17368396Y-9711571D01*
X-17276458Y-9587578D01*
X-17179077Y-9462047D01*
X-17082224Y-9342223D01*
X-16991867Y-9235352D01*
X-16913977Y-9148680D01*
X-16854523Y-9089451D01*
X-16821819Y-9065640D01*
X-16742153Y-9058834D01*
X-16674781Y-9097394D01*
X-16674781Y-9097394D01*
G37*
X-16674781Y-9097394D02*
X-16635283Y-9161216D01*
X-16627555Y-9216499D01*
X-16643005Y-9287365D01*
X-16683878Y-9377877D01*
X-16752413Y-9492100D01*
X-16850853Y-9634097D01*
X-16981441Y-9807932D01*
X-17018093Y-9855200D01*
X-17117167Y-9985936D01*
X-17210919Y-10116222D01*
X-17292254Y-10235708D01*
X-17354077Y-10334045D01*
X-17383804Y-10388600D01*
X-17416795Y-10460550D01*
X-17438971Y-10521043D01*
X-17452448Y-10583143D01*
X-17459340Y-10659914D01*
X-17461761Y-10764422D01*
X-17461911Y-10871200D01*
X-17460928Y-11006255D01*
X-17457141Y-11103688D01*
X-17448412Y-11176669D01*
X-17432606Y-11238371D01*
X-17407583Y-11301966D01*
X-17383484Y-11354570D01*
X-17280154Y-11534360D01*
X-17152581Y-11680438D01*
X-16996341Y-11795387D01*
X-16807008Y-11881789D01*
X-16580157Y-11942226D01*
X-16313305Y-11979105D01*
X-16209076Y-11990635D01*
X-16140608Y-12005663D01*
X-16092890Y-12029401D01*
X-16050913Y-12067062D01*
X-16046484Y-12071762D01*
X-15996575Y-12143358D01*
X-15978133Y-12210677D01*
X-15992926Y-12261428D01*
X-16016778Y-12278182D01*
X-16062891Y-12285443D01*
X-16143452Y-12289246D01*
X-16242229Y-12289646D01*
X-16342991Y-12286700D01*
X-16429509Y-12280464D01*
X-16459200Y-12276642D01*
X-16684105Y-12226765D01*
X-16909833Y-12150631D01*
X-17123733Y-12054012D01*
X-17313156Y-11942678D01*
X-17465451Y-11822403D01*
X-17475018Y-11813188D01*
X-17630934Y-11626799D01*
X-17742667Y-11417807D01*
X-17809882Y-11189258D01*
X-17832243Y-10944201D01*
X-17809415Y-10685681D01*
X-17741065Y-10416747D01*
X-17652891Y-10195081D01*
X-17593014Y-10074570D01*
X-17522917Y-9947240D01*
X-17456565Y-9838305D01*
X-17448923Y-9826781D01*
X-17368396Y-9711571D01*
X-17276458Y-9587578D01*
X-17179077Y-9462047D01*
X-17082224Y-9342223D01*
X-16991867Y-9235352D01*
X-16913977Y-9148680D01*
X-16854523Y-9089451D01*
X-16821819Y-9065640D01*
X-16742153Y-9058834D01*
X-16674781Y-9097394D01*
G36*
X-11158612Y-26920793D02*
G01*
X-10908063Y-26998371D01*
X-10814884Y-27041095D01*
X-10714679Y-27108231D01*
X-10660028Y-27188774D01*
X-10645955Y-27290911D01*
X-10647708Y-27316062D01*
X-10660302Y-27368133D01*
X-10689895Y-27394956D01*
X-10743247Y-27396665D01*
X-10827118Y-27373395D01*
X-10948271Y-27325279D01*
X-10955602Y-27322149D01*
X-11166031Y-27243524D01*
X-11360921Y-27197707D01*
X-11560182Y-27181122D01*
X-11717417Y-27185264D01*
X-11953527Y-27214457D01*
X-12181829Y-27274487D01*
X-12417572Y-27369826D01*
X-12522200Y-27421335D01*
X-12776313Y-27574388D01*
X-12998888Y-27753489D01*
X-13186910Y-27954017D01*
X-13337362Y-28171355D01*
X-13447226Y-28400882D01*
X-13513485Y-28637981D01*
X-13533122Y-28878032D01*
X-13528429Y-28961830D01*
X-13487458Y-29219468D01*
X-13411576Y-29472221D01*
X-13298408Y-29724458D01*
X-13145579Y-29980549D01*
X-12950713Y-30244861D01*
X-12711437Y-30521765D01*
X-12637341Y-30600905D01*
X-12536171Y-30709328D01*
X-12466544Y-30789724D01*
X-12423287Y-30849176D01*
X-12401230Y-30894768D01*
X-12395200Y-30932668D01*
X-12407937Y-31001747D01*
X-12435115Y-31049685D01*
X-12471798Y-31078624D01*
X-12510722Y-31088435D01*
X-12557411Y-31075828D01*
X-12617390Y-31037508D01*
X-12696182Y-30970184D01*
X-12799313Y-30870563D01*
X-12890500Y-30778256D01*
X-13155989Y-30489614D01*
X-13375589Y-30213206D01*
X-13551712Y-29945520D01*
X-13686767Y-29683043D01*
X-13749000Y-29526850D01*
X-13829731Y-29230041D01*
X-13860984Y-28937625D01*
X-13844055Y-28652333D01*
X-13780240Y-28376892D01*
X-13670834Y-28114033D01*
X-13517134Y-27866484D01*
X-13320433Y-27636974D01*
X-13082029Y-27428233D01*
X-12803216Y-27242990D01*
X-12618264Y-27144838D01*
X-12317348Y-27019508D01*
X-12015345Y-26934118D01*
X-11717834Y-26888988D01*
X-11430396Y-26884439D01*
X-11158612Y-26920793D01*
X-11158612Y-26920793D01*
G37*
X-11158612Y-26920793D02*
X-10908063Y-26998371D01*
X-10814884Y-27041095D01*
X-10714679Y-27108231D01*
X-10660028Y-27188774D01*
X-10645955Y-27290911D01*
X-10647708Y-27316062D01*
X-10660302Y-27368133D01*
X-10689895Y-27394956D01*
X-10743247Y-27396665D01*
X-10827118Y-27373395D01*
X-10948271Y-27325279D01*
X-10955602Y-27322149D01*
X-11166031Y-27243524D01*
X-11360921Y-27197707D01*
X-11560182Y-27181122D01*
X-11717417Y-27185264D01*
X-11953527Y-27214457D01*
X-12181829Y-27274487D01*
X-12417572Y-27369826D01*
X-12522200Y-27421335D01*
X-12776313Y-27574388D01*
X-12998888Y-27753489D01*
X-13186910Y-27954017D01*
X-13337362Y-28171355D01*
X-13447226Y-28400882D01*
X-13513485Y-28637981D01*
X-13533122Y-28878032D01*
X-13528429Y-28961830D01*
X-13487458Y-29219468D01*
X-13411576Y-29472221D01*
X-13298408Y-29724458D01*
X-13145579Y-29980549D01*
X-12950713Y-30244861D01*
X-12711437Y-30521765D01*
X-12637341Y-30600905D01*
X-12536171Y-30709328D01*
X-12466544Y-30789724D01*
X-12423287Y-30849176D01*
X-12401230Y-30894768D01*
X-12395200Y-30932668D01*
X-12407937Y-31001747D01*
X-12435115Y-31049685D01*
X-12471798Y-31078624D01*
X-12510722Y-31088435D01*
X-12557411Y-31075828D01*
X-12617390Y-31037508D01*
X-12696182Y-30970184D01*
X-12799313Y-30870563D01*
X-12890500Y-30778256D01*
X-13155989Y-30489614D01*
X-13375589Y-30213206D01*
X-13551712Y-29945520D01*
X-13686767Y-29683043D01*
X-13749000Y-29526850D01*
X-13829731Y-29230041D01*
X-13860984Y-28937625D01*
X-13844055Y-28652333D01*
X-13780240Y-28376892D01*
X-13670834Y-28114033D01*
X-13517134Y-27866484D01*
X-13320433Y-27636974D01*
X-13082029Y-27428233D01*
X-12803216Y-27242990D01*
X-12618264Y-27144838D01*
X-12317348Y-27019508D01*
X-12015345Y-26934118D01*
X-11717834Y-26888988D01*
X-11430396Y-26884439D01*
X-11158612Y-26920793D01*
G36*
X11003241Y-32208508D02*
G01*
X11102690Y-32240570D01*
X11235559Y-32293248D01*
X11329936Y-32333517D01*
X11660002Y-32497737D01*
X11954663Y-32687815D01*
X12210965Y-32901104D01*
X12425954Y-33134959D01*
X12596677Y-33386732D01*
X12672854Y-33536810D01*
X12794424Y-33868482D01*
X12870561Y-34215016D01*
X12902355Y-34570863D01*
X12890894Y-34930474D01*
X12837264Y-35288301D01*
X12742556Y-35638796D01*
X12607856Y-35976409D01*
X12434252Y-36295592D01*
X12222834Y-36590798D01*
X12032879Y-36800343D01*
X11762665Y-37036240D01*
X11474178Y-37224860D01*
X11167639Y-37366073D01*
X10945872Y-37435763D01*
X10777345Y-37468288D01*
X10572853Y-37490075D01*
X10346208Y-37500537D01*
X10111220Y-37499087D01*
X9881701Y-37485140D01*
X9851434Y-37482222D01*
X9692595Y-37462316D01*
X9578720Y-37437993D01*
X9504010Y-37406743D01*
X9462665Y-37366058D01*
X9448886Y-37313428D01*
X9448800Y-37308034D01*
X9456407Y-37277888D01*
X9482682Y-37253620D01*
X9532801Y-37234288D01*
X9611944Y-37218952D01*
X9725287Y-37206671D01*
X9878008Y-37196504D01*
X10075286Y-37187510D01*
X10121900Y-37185718D01*
X10361151Y-37174451D01*
X10559666Y-37158722D01*
X10727471Y-37136034D01*
X10874590Y-37103886D01*
X11011051Y-37059782D01*
X11146877Y-37001222D01*
X11292096Y-36925707D01*
X11390942Y-36869455D01*
X11520285Y-36782336D01*
X11665628Y-36665231D01*
X11814198Y-36530017D01*
X11953222Y-36388573D01*
X12069925Y-36252776D01*
X12106619Y-36203928D01*
X12268264Y-35939800D01*
X12400597Y-35645727D01*
X12500764Y-35332771D01*
X12565909Y-35011993D01*
X12593175Y-34694455D01*
X12579708Y-34391218D01*
X12578071Y-34377874D01*
X12513932Y-34043651D01*
X12410074Y-33737211D01*
X12267711Y-33460738D01*
X12088059Y-33216413D01*
X11872331Y-33006419D01*
X11772548Y-32929902D01*
X11640982Y-32844945D01*
X11479138Y-32753811D01*
X11305128Y-32665786D01*
X11137060Y-32590160D01*
X11027133Y-32547629D01*
X10920105Y-32496659D01*
X10835042Y-32430358D01*
X10782110Y-32358208D01*
X10769600Y-32307436D01*
X10789374Y-32259077D01*
X10830999Y-32218940D01*
X10874836Y-32199403D01*
X10929770Y-32195356D01*
X11003241Y-32208508D01*
X11003241Y-32208508D01*
G37*
X11003241Y-32208508D02*
X11102690Y-32240570D01*
X11235559Y-32293248D01*
X11329936Y-32333517D01*
X11660002Y-32497737D01*
X11954663Y-32687815D01*
X12210965Y-32901104D01*
X12425954Y-33134959D01*
X12596677Y-33386732D01*
X12672854Y-33536810D01*
X12794424Y-33868482D01*
X12870561Y-34215016D01*
X12902355Y-34570863D01*
X12890894Y-34930474D01*
X12837264Y-35288301D01*
X12742556Y-35638796D01*
X12607856Y-35976409D01*
X12434252Y-36295592D01*
X12222834Y-36590798D01*
X12032879Y-36800343D01*
X11762665Y-37036240D01*
X11474178Y-37224860D01*
X11167639Y-37366073D01*
X10945872Y-37435763D01*
X10777345Y-37468288D01*
X10572853Y-37490075D01*
X10346208Y-37500537D01*
X10111220Y-37499087D01*
X9881701Y-37485140D01*
X9851434Y-37482222D01*
X9692595Y-37462316D01*
X9578720Y-37437993D01*
X9504010Y-37406743D01*
X9462665Y-37366058D01*
X9448886Y-37313428D01*
X9448800Y-37308034D01*
X9456407Y-37277888D01*
X9482682Y-37253620D01*
X9532801Y-37234288D01*
X9611944Y-37218952D01*
X9725287Y-37206671D01*
X9878008Y-37196504D01*
X10075286Y-37187510D01*
X10121900Y-37185718D01*
X10361151Y-37174451D01*
X10559666Y-37158722D01*
X10727471Y-37136034D01*
X10874590Y-37103886D01*
X11011051Y-37059782D01*
X11146877Y-37001222D01*
X11292096Y-36925707D01*
X11390942Y-36869455D01*
X11520285Y-36782336D01*
X11665628Y-36665231D01*
X11814198Y-36530017D01*
X11953222Y-36388573D01*
X12069925Y-36252776D01*
X12106619Y-36203928D01*
X12268264Y-35939800D01*
X12400597Y-35645727D01*
X12500764Y-35332771D01*
X12565909Y-35011993D01*
X12593175Y-34694455D01*
X12579708Y-34391218D01*
X12578071Y-34377874D01*
X12513932Y-34043651D01*
X12410074Y-33737211D01*
X12267711Y-33460738D01*
X12088059Y-33216413D01*
X11872331Y-33006419D01*
X11772548Y-32929902D01*
X11640982Y-32844945D01*
X11479138Y-32753811D01*
X11305128Y-32665786D01*
X11137060Y-32590160D01*
X11027133Y-32547629D01*
X10920105Y-32496659D01*
X10835042Y-32430358D01*
X10782110Y-32358208D01*
X10769600Y-32307436D01*
X10789374Y-32259077D01*
X10830999Y-32218940D01*
X10874836Y-32199403D01*
X10929770Y-32195356D01*
X11003241Y-32208508D01*
G36*
X-18522670Y-34761268D02*
G01*
X-18446300Y-34797969D01*
X-18402419Y-34849046D01*
X-18400682Y-34853898D01*
X-18399482Y-34920091D01*
X-18442391Y-34978146D01*
X-18531662Y-35029981D01*
X-18660205Y-35074847D01*
X-18981890Y-35193922D01*
X-19292707Y-35362141D01*
X-19591435Y-35578771D01*
X-19781435Y-35747962D01*
X-20039212Y-36023816D01*
X-20248248Y-36310129D01*
X-20409903Y-36608947D01*
X-20493630Y-36820841D01*
X-20569713Y-37117470D01*
X-20595612Y-37408878D01*
X-20571860Y-37692714D01*
X-20498990Y-37966626D01*
X-20377538Y-38228264D01*
X-20208038Y-38475276D01*
X-20086806Y-38612069D01*
X-19910463Y-38771008D01*
X-19711053Y-38904844D01*
X-19483408Y-39015718D01*
X-19222357Y-39105772D01*
X-18922730Y-39177149D01*
X-18595336Y-39229910D01*
X-18472227Y-39247303D01*
X-18388587Y-39263324D01*
X-18333318Y-39281477D01*
X-18295321Y-39305265D01*
X-18267595Y-39333367D01*
X-18222982Y-39411764D01*
X-18216756Y-39468287D01*
X-18222829Y-39501478D01*
X-18238738Y-39521594D01*
X-18275251Y-39532254D01*
X-18343139Y-39537076D01*
X-18427700Y-39539170D01*
X-18557291Y-39536495D01*
X-18697544Y-39525525D01*
X-18811693Y-39509676D01*
X-19178209Y-39423082D01*
X-19516625Y-39305592D01*
X-19823915Y-39159245D01*
X-20097052Y-38986082D01*
X-20333012Y-38788146D01*
X-20528767Y-38567477D01*
X-20681292Y-38326116D01*
X-20734382Y-38212810D01*
X-20808031Y-37989691D01*
X-20856606Y-37738424D01*
X-20878360Y-37475992D01*
X-20871544Y-37219374D01*
X-20852023Y-37069614D01*
X-20767579Y-36735519D01*
X-20636310Y-36408960D01*
X-20462131Y-36095088D01*
X-20248962Y-35799053D01*
X-20000719Y-35526005D01*
X-19721321Y-35281094D01*
X-19414684Y-35069469D01*
X-19266311Y-34985115D01*
X-19125176Y-34915373D01*
X-18979376Y-34852538D01*
X-18840506Y-34800844D01*
X-18720164Y-34764527D01*
X-18629944Y-34747822D01*
X-18614947Y-34747200D01*
X-18522670Y-34761268D01*
X-18522670Y-34761268D01*
G37*
X-18522670Y-34761268D02*
X-18446300Y-34797969D01*
X-18402419Y-34849046D01*
X-18400682Y-34853898D01*
X-18399482Y-34920091D01*
X-18442391Y-34978146D01*
X-18531662Y-35029981D01*
X-18660205Y-35074847D01*
X-18981890Y-35193922D01*
X-19292707Y-35362141D01*
X-19591435Y-35578771D01*
X-19781435Y-35747962D01*
X-20039212Y-36023816D01*
X-20248248Y-36310129D01*
X-20409903Y-36608947D01*
X-20493630Y-36820841D01*
X-20569713Y-37117470D01*
X-20595612Y-37408878D01*
X-20571860Y-37692714D01*
X-20498990Y-37966626D01*
X-20377538Y-38228264D01*
X-20208038Y-38475276D01*
X-20086806Y-38612069D01*
X-19910463Y-38771008D01*
X-19711053Y-38904844D01*
X-19483408Y-39015718D01*
X-19222357Y-39105772D01*
X-18922730Y-39177149D01*
X-18595336Y-39229910D01*
X-18472227Y-39247303D01*
X-18388587Y-39263324D01*
X-18333318Y-39281477D01*
X-18295321Y-39305265D01*
X-18267595Y-39333367D01*
X-18222982Y-39411764D01*
X-18216756Y-39468287D01*
X-18222829Y-39501478D01*
X-18238738Y-39521594D01*
X-18275251Y-39532254D01*
X-18343139Y-39537076D01*
X-18427700Y-39539170D01*
X-18557291Y-39536495D01*
X-18697544Y-39525525D01*
X-18811693Y-39509676D01*
X-19178209Y-39423082D01*
X-19516625Y-39305592D01*
X-19823915Y-39159245D01*
X-20097052Y-38986082D01*
X-20333012Y-38788146D01*
X-20528767Y-38567477D01*
X-20681292Y-38326116D01*
X-20734382Y-38212810D01*
X-20808031Y-37989691D01*
X-20856606Y-37738424D01*
X-20878360Y-37475992D01*
X-20871544Y-37219374D01*
X-20852023Y-37069614D01*
X-20767579Y-36735519D01*
X-20636310Y-36408960D01*
X-20462131Y-36095088D01*
X-20248962Y-35799053D01*
X-20000719Y-35526005D01*
X-19721321Y-35281094D01*
X-19414684Y-35069469D01*
X-19266311Y-34985115D01*
X-19125176Y-34915373D01*
X-18979376Y-34852538D01*
X-18840506Y-34800844D01*
X-18720164Y-34764527D01*
X-18629944Y-34747822D01*
X-18614947Y-34747200D01*
X-18522670Y-34761268D01*
D11*
G04 #@! TO.C,E\002A\002A\002A*
X-5080000Y63110221D02*
X-4116814Y63070657D01*
X-4116814Y63070657D02*
X-3179008Y62991457D01*
X-3179008Y62991457D02*
X-2258665Y62871354D01*
X-2258665Y62871354D02*
X-1347869Y62709076D01*
X-1347869Y62709076D02*
X-438704Y62503356D01*
X-438704Y62503356D02*
X476748Y62252923D01*
X476748Y62252923D02*
X713173Y62181440D01*
X713173Y62181440D02*
X1216336Y62020380D01*
X1216336Y62020380D02*
X1678968Y61859194D01*
X1678968Y61859194D02*
X2111195Y61693957D01*
X2111195Y61693957D02*
X2523144Y61520740D01*
X2523144Y61520740D02*
X2924941Y61335617D01*
X2924941Y61335617D02*
X3044983Y61277187D01*
X3044983Y61277187D02*
X3668603Y60949111D01*
X3668603Y60949111D02*
X4279961Y60584872D01*
X4279961Y60584872D02*
X4880728Y60182977D01*
X4880728Y60182977D02*
X5472578Y59741935D01*
X5472578Y59741935D02*
X6057183Y59260251D01*
X6057183Y59260251D02*
X6636216Y58736434D01*
X6636216Y58736434D02*
X7211349Y58168991D01*
X7211349Y58168991D02*
X7784255Y57556428D01*
X7784255Y57556428D02*
X8356606Y56897254D01*
X8356606Y56897254D02*
X8930076Y56189974D01*
X8930076Y56189974D02*
X9334085Y55664100D01*
X9334085Y55664100D02*
X9776479Y55062691D01*
X9776479Y55062691D02*
X10185629Y54477593D01*
X10185629Y54477593D02*
X10568171Y53898045D01*
X10568171Y53898045D02*
X10930738Y53313283D01*
X10930738Y53313283D02*
X11279965Y52712547D01*
X11279965Y52712547D02*
X11622486Y52085073D01*
X11622486Y52085073D02*
X11964937Y51420099D01*
X11964937Y51420099D02*
X12027227Y51295300D01*
X12027227Y51295300D02*
X12249406Y50842743D01*
X12249406Y50842743D02*
X12448916Y50423972D01*
X12448916Y50423972D02*
X12629701Y50029502D01*
X12629701Y50029502D02*
X12795703Y49649847D01*
X12795703Y49649847D02*
X12950866Y49275521D01*
X12950866Y49275521D02*
X13099131Y48897039D01*
X13099131Y48897039D02*
X13244443Y48504915D01*
X13244443Y48504915D02*
X13390744Y48089663D01*
X13390744Y48089663D02*
X13526460Y47688500D01*
X13526460Y47688500D02*
X13643263Y47332695D01*
X13643263Y47332695D02*
X13759049Y46969920D01*
X13759049Y46969920D02*
X13874243Y46598388D01*
X13874243Y46598388D02*
X13989269Y46216315D01*
X13989269Y46216315D02*
X14104552Y45821916D01*
X14104552Y45821916D02*
X14220516Y45413405D01*
X14220516Y45413405D02*
X14337586Y44988998D01*
X14337586Y44988998D02*
X14456185Y44546909D01*
X14456185Y44546909D02*
X14576740Y44085353D01*
X14576740Y44085353D02*
X14699673Y43602545D01*
X14699673Y43602545D02*
X14825410Y43096700D01*
X14825410Y43096700D02*
X14954375Y42566032D01*
X14954375Y42566032D02*
X15086993Y42008757D01*
X15086993Y42008757D02*
X15223687Y41423088D01*
X15223687Y41423088D02*
X15364883Y40807242D01*
X15364883Y40807242D02*
X15511005Y40159433D01*
X15511005Y40159433D02*
X15662477Y39477876D01*
X15662477Y39477876D02*
X15819724Y38760785D01*
X15819724Y38760785D02*
X15983171Y38006376D01*
X15983171Y38006376D02*
X16153241Y37212862D01*
X16153241Y37212862D02*
X16330360Y36378460D01*
X16330360Y36378460D02*
X16514952Y35501384D01*
X16514952Y35501384D02*
X16707441Y34579848D01*
X16707441Y34579848D02*
X16908251Y33612069D01*
X16908251Y33612069D02*
X17117808Y32596259D01*
X17117808Y32596259D02*
X17135141Y32512000D01*
X17135141Y32512000D02*
X17174544Y32320977D01*
X17174544Y32320977D02*
X17222876Y32087591D01*
X17222876Y32087591D02*
X17278606Y31819191D01*
X17278606Y31819191D02*
X17340202Y31523127D01*
X17340202Y31523127D02*
X17406132Y31206747D01*
X17406132Y31206747D02*
X17474864Y30877401D01*
X17474864Y30877401D02*
X17544868Y30542438D01*
X17544868Y30542438D02*
X17614611Y30209205D01*
X17614611Y30209205D02*
X17682562Y29885053D01*
X17682562Y29885053D02*
X17691744Y29841297D01*
X17691744Y29841297D02*
X17809400Y29277957D01*
X17809400Y29277957D02*
X17916788Y28757643D01*
X17916788Y28757643D02*
X18015117Y28273898D01*
X18015117Y28273898D02*
X18105597Y27820262D01*
X18105597Y27820262D02*
X18189437Y27390275D01*
X18189437Y27390275D02*
X18267846Y26977478D01*
X18267846Y26977478D02*
X18342036Y26575413D01*
X18342036Y26575413D02*
X18413214Y26177619D01*
X18413214Y26177619D02*
X18482591Y25777638D01*
X18482591Y25777638D02*
X18551376Y25369011D01*
X18551376Y25369011D02*
X18620779Y24945278D01*
X18620779Y24945278D02*
X18692008Y24499980D01*
X18692008Y24499980D02*
X18692274Y24498300D01*
X18692274Y24498300D02*
X18811180Y23728253D01*
X18811180Y23728253D02*
X18929022Y22928303D01*
X18929022Y22928303D02*
X19044414Y22109078D01*
X19044414Y22109078D02*
X19155972Y21281208D01*
X19155972Y21281208D02*
X19262310Y20455320D01*
X19262310Y20455320D02*
X19362042Y19642043D01*
X19362042Y19642043D02*
X19453784Y18852007D01*
X19453784Y18852007D02*
X19536149Y18095839D01*
X19536149Y18095839D02*
X19571284Y17754600D01*
X19571284Y17754600D02*
X19595656Y17526731D01*
X19595656Y17526731D02*
X19621475Y17316477D01*
X19621475Y17316477D02*
X19650695Y17111360D01*
X19650695Y17111360D02*
X19685267Y16898896D01*
X19685267Y16898896D02*
X19727144Y16666605D01*
X19727144Y16666605D02*
X19778281Y16402005D01*
X19778281Y16402005D02*
X19799801Y16294100D01*
X19799801Y16294100D02*
X19957748Y15498147D01*
X19957748Y15498147D02*
X20109081Y14717135D01*
X20109081Y14717135D02*
X20253318Y13953948D01*
X20253318Y13953948D02*
X20389973Y13211471D01*
X20389973Y13211471D02*
X20518565Y12492586D01*
X20518565Y12492586D02*
X20638608Y11800178D01*
X20638608Y11800178D02*
X20749620Y11137131D01*
X20749620Y11137131D02*
X20851116Y10506327D01*
X20851116Y10506327D02*
X20942614Y9910651D01*
X20942614Y9910651D02*
X21023629Y9352987D01*
X21023629Y9352987D02*
X21093677Y8836219D01*
X21093677Y8836219D02*
X21152275Y8363229D01*
X21152275Y8363229D02*
X21195004Y7975600D01*
X21195004Y7975600D02*
X21227451Y7635956D01*
X21227451Y7635956D02*
X21260319Y7245635D01*
X21260319Y7245635D02*
X21293601Y6804759D01*
X21293601Y6804759D02*
X21327294Y6313449D01*
X21327294Y6313449D02*
X21361391Y5771828D01*
X21361391Y5771828D02*
X21395887Y5180017D01*
X21395887Y5180017D02*
X21430777Y4538137D01*
X21430777Y4538137D02*
X21466056Y3846311D01*
X21466056Y3846311D02*
X21501719Y3104659D01*
X21501719Y3104659D02*
X21537760Y2313304D01*
X21537760Y2313304D02*
X21574174Y1472367D01*
X21574174Y1472367D02*
X21610955Y581969D01*
X21610955Y581969D02*
X21648100Y-357767D01*
X21648100Y-357767D02*
X21685601Y-1346720D01*
X21685601Y-1346720D02*
X21723454Y-2384769D01*
X21723454Y-2384769D02*
X21761654Y-3471791D01*
X21761654Y-3471791D02*
X21800196Y-4607665D01*
X21800196Y-4607665D02*
X21839073Y-5792270D01*
X21839073Y-5792270D02*
X21878282Y-7025484D01*
X21878282Y-7025484D02*
X21917816Y-8307185D01*
X21917816Y-8307185D02*
X21957671Y-9637252D01*
X21957671Y-9637252D02*
X21958856Y-9677400D01*
X21958856Y-9677400D02*
X21967216Y-9956283D01*
X21967216Y-9956283D02*
X21975978Y-10240797D01*
X21975978Y-10240797D02*
X21984874Y-10522762D01*
X21984874Y-10522762D02*
X21993638Y-10793997D01*
X21993638Y-10793997D02*
X22002002Y-11046322D01*
X22002002Y-11046322D02*
X22009699Y-11271559D01*
X22009699Y-11271559D02*
X22016462Y-11461527D01*
X22016462Y-11461527D02*
X22021510Y-11595100D01*
X22021510Y-11595100D02*
X22027928Y-11794672D01*
X22027928Y-11794672D02*
X22033350Y-12037757D01*
X22033350Y-12037757D02*
X22037779Y-12317078D01*
X22037779Y-12317078D02*
X22041212Y-12625357D01*
X22041212Y-12625357D02*
X22043651Y-12955317D01*
X22043651Y-12955317D02*
X22045096Y-13299681D01*
X22045096Y-13299681D02*
X22045546Y-13651171D01*
X22045546Y-13651171D02*
X22045001Y-14002511D01*
X22045001Y-14002511D02*
X22043463Y-14346423D01*
X22043463Y-14346423D02*
X22040930Y-14675629D01*
X22040930Y-14675629D02*
X22037403Y-14982852D01*
X22037403Y-14982852D02*
X22032883Y-15260816D01*
X22032883Y-15260816D02*
X22027368Y-15502242D01*
X22027368Y-15502242D02*
X22021468Y-15684500D01*
X22021468Y-15684500D02*
X22006759Y-16028458D01*
X22006759Y-16028458D02*
X21989340Y-16378221D01*
X21989340Y-16378221D02*
X21969800Y-16724487D01*
X21969800Y-16724487D02*
X21948731Y-17057959D01*
X21948731Y-17057959D02*
X21926722Y-17369336D01*
X21926722Y-17369336D02*
X21904364Y-17649320D01*
X21904364Y-17649320D02*
X21882247Y-17888611D01*
X21882247Y-17888611D02*
X21880374Y-17907000D01*
X21880374Y-17907000D02*
X21838800Y-18289543D01*
X21838800Y-18289543D02*
X21789362Y-18703819D01*
X21789362Y-18703819D02*
X21731886Y-19150875D01*
X21731886Y-19150875D02*
X21666196Y-19631763D01*
X21666196Y-19631763D02*
X21592118Y-20147532D01*
X21592118Y-20147532D02*
X21509478Y-20699231D01*
X21509478Y-20699231D02*
X21418101Y-21287912D01*
X21418101Y-21287912D02*
X21317812Y-21914624D01*
X21317812Y-21914624D02*
X21208437Y-22580416D01*
X21208437Y-22580416D02*
X21089801Y-23286339D01*
X21089801Y-23286339D02*
X20961730Y-24033443D01*
X20961730Y-24033443D02*
X20824048Y-24822777D01*
X20824048Y-24822777D02*
X20676582Y-25655391D01*
X20676582Y-25655391D02*
X20519156Y-26532336D01*
X20519156Y-26532336D02*
X20351597Y-27454662D01*
X20351597Y-27454662D02*
X20173729Y-28423417D01*
X20173729Y-28423417D02*
X19985377Y-29439653D01*
X19985377Y-29439653D02*
X19786368Y-30504419D01*
X19786368Y-30504419D02*
X19776651Y-30556200D01*
X19776651Y-30556200D02*
X19720314Y-30856855D01*
X19720314Y-30856855D02*
X19664799Y-31154065D01*
X19664799Y-31154065D02*
X19611146Y-31442211D01*
X19611146Y-31442211D02*
X19560392Y-31715678D01*
X19560392Y-31715678D02*
X19513575Y-31968850D01*
X19513575Y-31968850D02*
X19471733Y-32196108D01*
X19471733Y-32196108D02*
X19435905Y-32391837D01*
X19435905Y-32391837D02*
X19407128Y-32550420D01*
X19407128Y-32550420D02*
X19386440Y-32666241D01*
X19386440Y-32666241D02*
X19382316Y-32689800D01*
X19382316Y-32689800D02*
X19340996Y-32920019D01*
X19340996Y-32920019D02*
X19289433Y-33194954D01*
X19289433Y-33194954D02*
X19228612Y-33509779D01*
X19228612Y-33509779D02*
X19159519Y-33859664D01*
X19159519Y-33859664D02*
X19083137Y-34239784D01*
X19083137Y-34239784D02*
X19000453Y-34645310D01*
X19000453Y-34645310D02*
X18912452Y-35071415D01*
X18912452Y-35071415D02*
X18820118Y-35513272D01*
X18820118Y-35513272D02*
X18724437Y-35966053D01*
X18724437Y-35966053D02*
X18626394Y-36424931D01*
X18626394Y-36424931D02*
X18526974Y-36885078D01*
X18526974Y-36885078D02*
X18514095Y-36944300D01*
X18514095Y-36944300D02*
X18317521Y-37838147D01*
X18317521Y-37838147D02*
X18123091Y-38703575D01*
X18123091Y-38703575D02*
X17931159Y-39539297D01*
X17931159Y-39539297D02*
X17742074Y-40344022D01*
X17742074Y-40344022D02*
X17556189Y-41116463D01*
X17556189Y-41116463D02*
X17373856Y-41855330D01*
X17373856Y-41855330D02*
X17195425Y-42559335D01*
X17195425Y-42559335D02*
X17021250Y-43227188D01*
X17021250Y-43227188D02*
X16851680Y-43857602D01*
X16851680Y-43857602D02*
X16687069Y-44449286D01*
X16687069Y-44449286D02*
X16527767Y-45000953D01*
X16527767Y-45000953D02*
X16374126Y-45511313D01*
X16374126Y-45511313D02*
X16226498Y-45979078D01*
X16226498Y-45979078D02*
X16085234Y-46402958D01*
X16085234Y-46402958D02*
X15950687Y-46781666D01*
X15950687Y-46781666D02*
X15823207Y-47113912D01*
X15823207Y-47113912D02*
X15703147Y-47398407D01*
X15703147Y-47398407D02*
X15605566Y-47604953D01*
X15605566Y-47604953D02*
X15563663Y-47683108D01*
X15563663Y-47683108D02*
X15498214Y-47798620D01*
X15498214Y-47798620D02*
X15412659Y-47945802D01*
X15412659Y-47945802D02*
X15310435Y-48118970D01*
X15310435Y-48118970D02*
X15194981Y-48312439D01*
X15194981Y-48312439D02*
X15069735Y-48520522D01*
X15069735Y-48520522D02*
X14938134Y-48737536D01*
X14938134Y-48737536D02*
X14803618Y-48957795D01*
X14803618Y-48957795D02*
X14669624Y-49175613D01*
X14669624Y-49175613D02*
X14539590Y-49385306D01*
X14539590Y-49385306D02*
X14416954Y-49581188D01*
X14416954Y-49581188D02*
X14305155Y-49757574D01*
X14305155Y-49757574D02*
X14280109Y-49796700D01*
X14280109Y-49796700D02*
X13562022Y-50878600D01*
X13562022Y-50878600D02*
X12822179Y-51919980D01*
X12822179Y-51919980D02*
X12061357Y-52920022D01*
X12061357Y-52920022D02*
X11280331Y-53877909D01*
X11280331Y-53877909D02*
X10479876Y-54792824D01*
X10479876Y-54792824D02*
X9660767Y-55663948D01*
X9660767Y-55663948D02*
X8823779Y-56490464D01*
X8823779Y-56490464D02*
X7969688Y-57271554D01*
X7969688Y-57271554D02*
X7099269Y-58006401D01*
X7099269Y-58006401D02*
X6213297Y-58694187D01*
X6213297Y-58694187D02*
X5312548Y-59334094D01*
X5312548Y-59334094D02*
X5105400Y-59473066D01*
X5105400Y-59473066D02*
X4865980Y-59629960D01*
X4865980Y-59629960D02*
X4592530Y-59805721D01*
X4592530Y-59805721D02*
X4295139Y-59994037D01*
X4295139Y-59994037D02*
X3983899Y-60188599D01*
X3983899Y-60188599D02*
X3668901Y-60383096D01*
X3668901Y-60383096D02*
X3360234Y-60571217D01*
X3360234Y-60571217D02*
X3086100Y-60735872D01*
X3086100Y-60735872D02*
X2196552Y-61246605D01*
X2196552Y-61246605D02*
X1321114Y-61710185D01*
X1321114Y-61710185D02*
X457311Y-62127473D01*
X457311Y-62127473D02*
X-397332Y-62499332D01*
X-397332Y-62499332D02*
X-1245290Y-62826624D01*
X-1245290Y-62826624D02*
X-2089039Y-63110212D01*
X-2089039Y-63110212D02*
X-2931052Y-63350959D01*
X-2931052Y-63350959D02*
X-3773807Y-63549726D01*
X-3773807Y-63549726D02*
X-4619776Y-63707376D01*
X-4619776Y-63707376D02*
X-5471436Y-63824773D01*
X-5471436Y-63824773D02*
X-5905500Y-63869127D01*
X-5905500Y-63869127D02*
X-6048389Y-63879675D01*
X-6048389Y-63879675D02*
X-6231281Y-63889539D01*
X-6231281Y-63889539D02*
X-6444528Y-63898506D01*
X-6444528Y-63898506D02*
X-6678477Y-63906361D01*
X-6678477Y-63906361D02*
X-6923480Y-63912890D01*
X-6923480Y-63912890D02*
X-7169886Y-63917881D01*
X-7169886Y-63917881D02*
X-7408044Y-63921118D01*
X-7408044Y-63921118D02*
X-7628305Y-63922389D01*
X-7628305Y-63922389D02*
X-7821018Y-63921479D01*
X-7821018Y-63921479D02*
X-7976533Y-63918174D01*
X-7976533Y-63918174D02*
X-8026400Y-63916122D01*
X-8026400Y-63916122D02*
X-8956270Y-63844747D01*
X-8956270Y-63844747D02*
X-9881765Y-63722800D01*
X-9881765Y-63722800D02*
X-10802433Y-63550359D01*
X-10802433Y-63550359D02*
X-11717819Y-63327502D01*
X-11717819Y-63327502D02*
X-12063468Y-63229823D01*
X-12063468Y-63229823D02*
X-12609803Y-63047491D01*
X-12609803Y-63047491D02*
X-13143544Y-62824271D01*
X-13143544Y-62824271D02*
X-13667028Y-62558690D01*
X-13667028Y-62558690D02*
X-14182592Y-62249271D01*
X-14182592Y-62249271D02*
X-14692571Y-61894539D01*
X-14692571Y-61894539D02*
X-15199301Y-61493020D01*
X-15199301Y-61493020D02*
X-15705119Y-61043237D01*
X-15705119Y-61043237D02*
X-16040106Y-60718714D01*
X-16040106Y-60718714D02*
X-16579745Y-60147059D01*
X-16579745Y-60147059D02*
X-17102492Y-59528832D01*
X-17102492Y-59528832D02*
X-17607551Y-58865647D01*
X-17607551Y-58865647D02*
X-18094126Y-58159115D01*
X-18094126Y-58159115D02*
X-18561418Y-57410849D01*
X-18561418Y-57410849D02*
X-19008632Y-56622461D01*
X-19008632Y-56622461D02*
X-19434971Y-55795562D01*
X-19434971Y-55795562D02*
X-19839638Y-54931765D01*
X-19839638Y-54931765D02*
X-20221836Y-54032683D01*
X-20221836Y-54032683D02*
X-20580768Y-53099927D01*
X-20580768Y-53099927D02*
X-20915638Y-52135109D01*
X-20915638Y-52135109D02*
X-21225648Y-51139842D01*
X-21225648Y-51139842D02*
X-21510002Y-50115738D01*
X-21510002Y-50115738D02*
X-21739511Y-49187100D01*
X-21739511Y-49187100D02*
X-21847607Y-48710998D01*
X-21847607Y-48710998D02*
X-21940264Y-48273307D01*
X-21940264Y-48273307D02*
X-22018811Y-47864483D01*
X-22018811Y-47864483D02*
X-22084578Y-47474982D01*
X-22084578Y-47474982D02*
X-22138891Y-47095263D01*
X-22138891Y-47095263D02*
X-22183081Y-46715781D01*
X-22183081Y-46715781D02*
X-22218476Y-46326994D01*
X-22218476Y-46326994D02*
X-22246404Y-45919358D01*
X-22246404Y-45919358D02*
X-22268195Y-45483331D01*
X-22268195Y-45483331D02*
X-22273498Y-45351700D01*
X-22273498Y-45351700D02*
X-22281007Y-45128416D01*
X-22281007Y-45128416D02*
X-22288096Y-44863035D01*
X-22288096Y-44863035D02*
X-22294752Y-44559478D01*
X-22294752Y-44559478D02*
X-22300960Y-44221662D01*
X-22300960Y-44221662D02*
X-22306707Y-43853508D01*
X-22306707Y-43853508D02*
X-22311980Y-43458934D01*
X-22311980Y-43458934D02*
X-22316764Y-43041860D01*
X-22316764Y-43041860D02*
X-22321046Y-42606205D01*
X-22321046Y-42606205D02*
X-22324812Y-42155888D01*
X-22324812Y-42155888D02*
X-22328048Y-41694828D01*
X-22328048Y-41694828D02*
X-22330741Y-41226945D01*
X-22330741Y-41226945D02*
X-22332876Y-40756158D01*
X-22332876Y-40756158D02*
X-22334441Y-40286386D01*
X-22334441Y-40286386D02*
X-22335420Y-39821548D01*
X-22335420Y-39821548D02*
X-22335801Y-39365564D01*
X-22335801Y-39365564D02*
X-22335570Y-38922353D01*
X-22335570Y-38922353D02*
X-22334713Y-38495833D01*
X-22334713Y-38495833D02*
X-22333216Y-38089925D01*
X-22333216Y-38089925D02*
X-22331065Y-37708548D01*
X-22331065Y-37708548D02*
X-22328247Y-37355620D01*
X-22328247Y-37355620D02*
X-22324748Y-37035061D01*
X-22324748Y-37035061D02*
X-22320554Y-36750790D01*
X-22320554Y-36750790D02*
X-22315651Y-36506726D01*
X-22315651Y-36506726D02*
X-22310026Y-36306790D01*
X-22310026Y-36306790D02*
X-22305643Y-36195000D01*
X-22305643Y-36195000D02*
X-22257568Y-35276441D01*
X-22257568Y-35276441D02*
X-22199051Y-34397494D01*
X-22199051Y-34397494D02*
X-22129025Y-33547839D01*
X-22129025Y-33547839D02*
X-22046424Y-32717162D01*
X-22046424Y-32717162D02*
X-21950181Y-31895145D01*
X-21950181Y-31895145D02*
X-21839232Y-31071472D01*
X-21839232Y-31071472D02*
X-21712509Y-30235825D01*
X-21712509Y-30235825D02*
X-21650816Y-29857700D01*
X-21650816Y-29857700D02*
X-21628090Y-29722067D01*
X-21628090Y-29722067D02*
X-21605332Y-29588165D01*
X-21605332Y-29588165D02*
X-21581772Y-29451813D01*
X-21581772Y-29451813D02*
X-21556644Y-29308830D01*
X-21556644Y-29308830D02*
X-21529181Y-29155036D01*
X-21529181Y-29155036D02*
X-21498614Y-28986249D01*
X-21498614Y-28986249D02*
X-21464177Y-28798288D01*
X-21464177Y-28798288D02*
X-21425103Y-28586973D01*
X-21425103Y-28586973D02*
X-21380624Y-28348122D01*
X-21380624Y-28348122D02*
X-21329972Y-28077555D01*
X-21329972Y-28077555D02*
X-21272380Y-27771090D01*
X-21272380Y-27771090D02*
X-21207081Y-27424547D01*
X-21207081Y-27424547D02*
X-21133308Y-27033745D01*
X-21133308Y-27033745D02*
X-21105375Y-26885900D01*
X-21105375Y-26885900D02*
X-21036769Y-26517298D01*
X-21036769Y-26517298D02*
X-20974698Y-26170952D01*
X-20974698Y-26170952D02*
X-20917882Y-25838284D01*
X-20917882Y-25838284D02*
X-20865043Y-25510718D01*
X-20865043Y-25510718D02*
X-20814903Y-25179676D01*
X-20814903Y-25179676D02*
X-20766182Y-24836583D01*
X-20766182Y-24836583D02*
X-20717604Y-24472861D01*
X-20717604Y-24472861D02*
X-20667889Y-24079933D01*
X-20667889Y-24079933D02*
X-20615760Y-23649223D01*
X-20615760Y-23649223D02*
X-20588598Y-23418800D01*
X-20588598Y-23418800D02*
X-20492010Y-22575725D01*
X-20492010Y-22575725D02*
X-20397529Y-21716341D01*
X-20397529Y-21716341D02*
X-20305332Y-20843287D01*
X-20305332Y-20843287D02*
X-20215595Y-19959199D01*
X-20215595Y-19959199D02*
X-20128493Y-19066715D01*
X-20128493Y-19066715D02*
X-20044202Y-18168472D01*
X-20044202Y-18168472D02*
X-19962897Y-17267107D01*
X-19962897Y-17267107D02*
X-19884756Y-16365257D01*
X-19884756Y-16365257D02*
X-19809953Y-15465560D01*
X-19809953Y-15465560D02*
X-19738664Y-14570654D01*
X-19738664Y-14570654D02*
X-19671065Y-13683175D01*
X-19671065Y-13683175D02*
X-19607331Y-12805760D01*
X-19607331Y-12805760D02*
X-19547640Y-11941048D01*
X-19547640Y-11941048D02*
X-19492165Y-11091675D01*
X-19492165Y-11091675D02*
X-19441084Y-10260279D01*
X-19441084Y-10260279D02*
X-19394572Y-9449497D01*
X-19394572Y-9449497D02*
X-19352805Y-8661966D01*
X-19352805Y-8661966D02*
X-19315958Y-7900324D01*
X-19315958Y-7900324D02*
X-19284208Y-7167207D01*
X-19284208Y-7167207D02*
X-19257730Y-6465254D01*
X-19257730Y-6465254D02*
X-19236699Y-5797101D01*
X-19236699Y-5797101D02*
X-19221293Y-5165386D01*
X-19221293Y-5165386D02*
X-19211686Y-4572746D01*
X-19211686Y-4572746D02*
X-19208054Y-4021819D01*
X-19208054Y-4021819D02*
X-19210574Y-3515241D01*
X-19210574Y-3515241D02*
X-19219420Y-3055651D01*
X-19219420Y-3055651D02*
X-19223122Y-2933700D01*
X-19223122Y-2933700D02*
X-19238854Y-2544727D01*
X-19238854Y-2544727D02*
X-19261507Y-2122267D01*
X-19261507Y-2122267D02*
X-19291360Y-1661982D01*
X-19291360Y-1661982D02*
X-19328690Y-1159534D01*
X-19328690Y-1159534D02*
X-19366301Y-698500D01*
X-19366301Y-698500D02*
X-19422019Y-30262D01*
X-19422019Y-30262D02*
X-19480263Y685366D01*
X-19480263Y685366D02*
X-19540799Y1445048D01*
X-19540799Y1445048D02*
X-19603391Y2245451D01*
X-19603391Y2245451D02*
X-19667803Y3083240D01*
X-19667803Y3083240D02*
X-19733802Y3955080D01*
X-19733802Y3955080D02*
X-19801150Y4857635D01*
X-19801150Y4857635D02*
X-19869614Y5787572D01*
X-19869614Y5787572D02*
X-19938958Y6741554D01*
X-19938958Y6741554D02*
X-20008947Y7716249D01*
X-20008947Y7716249D02*
X-20079345Y8708319D01*
X-20079345Y8708319D02*
X-20149917Y9714432D01*
X-20149917Y9714432D02*
X-20220429Y10731252D01*
X-20220429Y10731252D02*
X-20290644Y11755444D01*
X-20290644Y11755444D02*
X-20360327Y12783673D01*
X-20360327Y12783673D02*
X-20429244Y13812605D01*
X-20429244Y13812605D02*
X-20497159Y14838904D01*
X-20497159Y14838904D02*
X-20563837Y15859236D01*
X-20563837Y15859236D02*
X-20629043Y16870267D01*
X-20629043Y16870267D02*
X-20692541Y17868660D01*
X-20692541Y17868660D02*
X-20754096Y18851082D01*
X-20754096Y18851082D02*
X-20813473Y19814198D01*
X-20813473Y19814198D02*
X-20814890Y19837400D01*
X-20814890Y19837400D02*
X-20851066Y20432830D01*
X-20851066Y20432830D02*
X-20885544Y21007551D01*
X-20885544Y21007551D02*
X-20918517Y21565385D01*
X-20918517Y21565385D02*
X-20950180Y22110157D01*
X-20950180Y22110157D02*
X-20980724Y22645689D01*
X-20980724Y22645689D02*
X-21010344Y23175806D01*
X-21010344Y23175806D02*
X-21039233Y23704330D01*
X-21039233Y23704330D02*
X-21067583Y24235085D01*
X-21067583Y24235085D02*
X-21095589Y24771895D01*
X-21095589Y24771895D02*
X-21123443Y25318582D01*
X-21123443Y25318582D02*
X-21151338Y25878971D01*
X-21151338Y25878971D02*
X-21179468Y26456884D01*
X-21179468Y26456884D02*
X-21208025Y27056145D01*
X-21208025Y27056145D02*
X-21237204Y27680577D01*
X-21237204Y27680577D02*
X-21267198Y28334004D01*
X-21267198Y28334004D02*
X-21298199Y29020249D01*
X-21298199Y29020249D02*
X-21330401Y29743136D01*
X-21330401Y29743136D02*
X-21363996Y30506487D01*
X-21363996Y30506487D02*
X-21399180Y31314127D01*
X-21399180Y31314127D02*
X-21424620Y31902400D01*
X-21424620Y31902400D02*
X-21454084Y32582677D01*
X-21454084Y32582677D02*
X-21481783Y33215791D01*
X-21481783Y33215791D02*
X-21507906Y33805342D01*
X-21507906Y33805342D02*
X-21532638Y34354932D01*
X-21532638Y34354932D02*
X-21556167Y34868158D01*
X-21556167Y34868158D02*
X-21578681Y35348623D01*
X-21578681Y35348623D02*
X-21600367Y35799926D01*
X-21600367Y35799926D02*
X-21621412Y36225666D01*
X-21621412Y36225666D02*
X-21642004Y36629444D01*
X-21642004Y36629444D02*
X-21662331Y37014861D01*
X-21662331Y37014861D02*
X-21682578Y37385515D01*
X-21682578Y37385515D02*
X-21702935Y37745007D01*
X-21702935Y37745007D02*
X-21723588Y38096938D01*
X-21723588Y38096938D02*
X-21744725Y38444907D01*
X-21744725Y38444907D02*
X-21766532Y38792513D01*
X-21766532Y38792513D02*
X-21789198Y39143359D01*
X-21789198Y39143359D02*
X-21812909Y39501042D01*
X-21812909Y39501042D02*
X-21837854Y39869164D01*
X-21837854Y39869164D02*
X-21843683Y39954200D01*
X-21843683Y39954200D02*
X-21863673Y40246895D01*
X-21863673Y40246895D02*
X-21883786Y40544493D01*
X-21883786Y40544493D02*
X-21903526Y40839457D01*
X-21903526Y40839457D02*
X-21922398Y41124251D01*
X-21922398Y41124251D02*
X-21939906Y41391340D01*
X-21939906Y41391340D02*
X-21955554Y41633188D01*
X-21955554Y41633188D02*
X-21968847Y41842258D01*
X-21968847Y41842258D02*
X-21979289Y42011016D01*
X-21979289Y42011016D02*
X-21982370Y42062400D01*
X-21982370Y42062400D02*
X-22029908Y42960108D01*
X-22029908Y42960108D02*
X-22063213Y43812541D01*
X-22063213Y43812541D02*
X-22082108Y44623241D01*
X-22082108Y44623241D02*
X-22086418Y45395750D01*
X-22086418Y45395750D02*
X-22075965Y46133611D01*
X-22075965Y46133611D02*
X-22050574Y46840365D01*
X-22050574Y46840365D02*
X-22010069Y47519555D01*
X-22010069Y47519555D02*
X-21954273Y48174721D01*
X-21954273Y48174721D02*
X-21883009Y48809406D01*
X-21883009Y48809406D02*
X-21796102Y49427153D01*
X-21796102Y49427153D02*
X-21693375Y50031502D01*
X-21693375Y50031502D02*
X-21574652Y50625996D01*
X-21574652Y50625996D02*
X-21550630Y50736500D01*
X-21550630Y50736500D02*
X-21329697Y51636729D01*
X-21329697Y51636729D02*
X-21068855Y52509789D01*
X-21068855Y52509789D02*
X-20767069Y53357581D01*
X-20767069Y53357581D02*
X-20423304Y54182004D01*
X-20423304Y54182004D02*
X-20036528Y54984955D01*
X-20036528Y54984955D02*
X-19605706Y55768335D01*
X-19605706Y55768335D02*
X-19129804Y56534043D01*
X-19129804Y56534043D02*
X-18607788Y57283976D01*
X-18607788Y57283976D02*
X-18038625Y58020035D01*
X-18038625Y58020035D02*
X-17421279Y58744118D01*
X-17421279Y58744118D02*
X-16862200Y59347100D01*
X-16862200Y59347100D02*
X-16716166Y59500806D01*
X-16716166Y59500806D02*
X-16552824Y59675799D01*
X-16552824Y59675799D02*
X-16385909Y59857171D01*
X-16385909Y59857171D02*
X-16229153Y60030015D01*
X-16229153Y60030015D02*
X-16113443Y60159900D01*
X-16113443Y60159900D02*
X-15828143Y60476283D01*
X-15828143Y60476283D02*
X-15563654Y60752957D01*
X-15563654Y60752957D02*
X-15315083Y60994030D01*
X-15315083Y60994030D02*
X-15077534Y61203609D01*
X-15077534Y61203609D02*
X-14846115Y61385802D01*
X-14846115Y61385802D02*
X-14615932Y61544717D01*
X-14615932Y61544717D02*
X-14382090Y61684462D01*
X-14382090Y61684462D02*
X-14160428Y61799187D01*
X-14160428Y61799187D02*
X-13929628Y61903651D01*
X-13929628Y61903651D02*
X-13702210Y61990856D01*
X-13702210Y61990856D02*
X-13467695Y62063631D01*
X-13467695Y62063631D02*
X-13215602Y62124803D01*
X-13215602Y62124803D02*
X-12935451Y62177198D01*
X-12935451Y62177198D02*
X-12616763Y62223644D01*
X-12616763Y62223644D02*
X-12560300Y62230863D01*
X-12560300Y62230863D02*
X-12444441Y62245747D01*
X-12444441Y62245747D02*
X-12333195Y62260864D01*
X-12333195Y62260864D02*
X-12221080Y62277163D01*
X-12221080Y62277163D02*
X-12102616Y62295588D01*
X-12102616Y62295588D02*
X-11972320Y62317088D01*
X-11972320Y62317088D02*
X-11824711Y62342607D01*
X-11824711Y62342607D02*
X-11654307Y62373093D01*
X-11654307Y62373093D02*
X-11455627Y62409493D01*
X-11455627Y62409493D02*
X-11223189Y62452752D01*
X-11223189Y62452752D02*
X-10951511Y62503818D01*
X-10951511Y62503818D02*
X-10655300Y62559813D01*
X-10655300Y62559813D02*
X-9951591Y62688110D01*
X-9951591Y62688110D02*
X-9289012Y62798310D01*
X-9289012Y62798310D02*
X-8661460Y62891016D01*
X-8661460Y62891016D02*
X-8062834Y62966830D01*
X-8062834Y62966830D02*
X-7487030Y63026354D01*
X-7487030Y63026354D02*
X-6927946Y63070192D01*
X-6927946Y63070192D02*
X-6379480Y63098945D01*
X-6379480Y63098945D02*
X-5835527Y63113215D01*
X-5835527Y63113215D02*
X-5289987Y63113607D01*
X-5289987Y63113607D02*
X-5080000Y63110221D01*
X-5080000Y63110221D02*
X-5080000Y63110221D01*
G04 #@! TD*
M02*
