G04 #@! TF.GenerationSoftware,KiCad,Pcbnew,(5.1.0-0)*
G04 #@! TF.CreationDate,2019-11-19T19:36:27-07:00*
G04 #@! TF.ProjectId,XMas-V3,584d6173-2d56-4332-9e6b-696361645f70,rev?*
G04 #@! TF.SameCoordinates,Original*
G04 #@! TF.FileFunction,Soldermask,Bot*
G04 #@! TF.FilePolarity,Negative*
%FSLAX46Y46*%
G04 Gerber Fmt 4.6, Leading zero omitted, Abs format (unit mm)*
G04 Created by KiCad (PCBNEW (5.1.0-0)) date 2019-11-19 19:36:27*
%MOMM*%
%LPD*%
G04 APERTURE LIST*
%ADD10C,0.150000*%
G04 APERTURE END LIST*
D10*
G36*
X-636000Y-51434000D02*
G01*
X-8538000Y-51434000D01*
X-8538000Y-45372000D01*
X-636000Y-45372000D01*
X-636000Y-51434000D01*
X-636000Y-51434000D01*
G37*
G36*
X8669000Y-51234000D02*
G01*
X5967000Y-51234000D01*
X5967000Y-45572000D01*
X8669000Y-45572000D01*
X8669000Y-51234000D01*
X8669000Y-51234000D01*
G37*
G36*
X-15141000Y-51234000D02*
G01*
X-17843000Y-51234000D01*
X-17843000Y-45572000D01*
X-15141000Y-45572000D01*
X-15141000Y-51234000D01*
X-15141000Y-51234000D01*
G37*
G36*
X11100604Y-41450347D02*
G01*
X11137144Y-41461432D01*
X11170821Y-41479433D01*
X11200341Y-41503659D01*
X11224567Y-41533179D01*
X11242568Y-41566856D01*
X11253653Y-41603396D01*
X11258000Y-41647538D01*
X11258000Y-42596462D01*
X11253653Y-42640604D01*
X11242568Y-42677144D01*
X11224567Y-42710821D01*
X11200341Y-42740341D01*
X11170821Y-42764567D01*
X11137144Y-42782568D01*
X11100604Y-42793653D01*
X11056462Y-42798000D01*
X9607538Y-42798000D01*
X9563396Y-42793653D01*
X9526856Y-42782568D01*
X9493179Y-42764567D01*
X9463659Y-42740341D01*
X9439433Y-42710821D01*
X9421432Y-42677144D01*
X9410347Y-42640604D01*
X9406000Y-42596462D01*
X9406000Y-41647538D01*
X9410347Y-41603396D01*
X9421432Y-41566856D01*
X9439433Y-41533179D01*
X9463659Y-41503659D01*
X9493179Y-41479433D01*
X9526856Y-41461432D01*
X9563396Y-41450347D01*
X9607538Y-41446000D01*
X11056462Y-41446000D01*
X11100604Y-41450347D01*
X11100604Y-41450347D01*
G37*
G36*
X11100604Y-38650347D02*
G01*
X11137144Y-38661432D01*
X11170821Y-38679433D01*
X11200341Y-38703659D01*
X11224567Y-38733179D01*
X11242568Y-38766856D01*
X11253653Y-38803396D01*
X11258000Y-38847538D01*
X11258000Y-39796462D01*
X11253653Y-39840604D01*
X11242568Y-39877144D01*
X11224567Y-39910821D01*
X11200341Y-39940341D01*
X11170821Y-39964567D01*
X11137144Y-39982568D01*
X11100604Y-39993653D01*
X11056462Y-39998000D01*
X9607538Y-39998000D01*
X9563396Y-39993653D01*
X9526856Y-39982568D01*
X9493179Y-39964567D01*
X9463659Y-39940341D01*
X9439433Y-39910821D01*
X9421432Y-39877144D01*
X9410347Y-39840604D01*
X9406000Y-39796462D01*
X9406000Y-38847538D01*
X9410347Y-38803396D01*
X9421432Y-38766856D01*
X9439433Y-38733179D01*
X9463659Y-38703659D01*
X9493179Y-38679433D01*
X9526856Y-38661432D01*
X9563396Y-38650347D01*
X9607538Y-38646000D01*
X11056462Y-38646000D01*
X11100604Y-38650347D01*
X11100604Y-38650347D01*
G37*
G36*
X-11912396Y-35222347D02*
G01*
X-11875856Y-35233432D01*
X-11842179Y-35251433D01*
X-11812659Y-35275659D01*
X-11788433Y-35305179D01*
X-11770432Y-35338856D01*
X-11759347Y-35375396D01*
X-11755000Y-35419538D01*
X-11755000Y-36368462D01*
X-11759347Y-36412604D01*
X-11770432Y-36449144D01*
X-11788433Y-36482821D01*
X-11812659Y-36512341D01*
X-11842179Y-36536567D01*
X-11875856Y-36554568D01*
X-11912396Y-36565653D01*
X-11956538Y-36570000D01*
X-13405462Y-36570000D01*
X-13449604Y-36565653D01*
X-13486144Y-36554568D01*
X-13519821Y-36536567D01*
X-13549341Y-36512341D01*
X-13573567Y-36482821D01*
X-13591568Y-36449144D01*
X-13602653Y-36412604D01*
X-13607000Y-36368462D01*
X-13607000Y-35419538D01*
X-13602653Y-35375396D01*
X-13591568Y-35338856D01*
X-13573567Y-35305179D01*
X-13549341Y-35275659D01*
X-13519821Y-35251433D01*
X-13486144Y-35233432D01*
X-13449604Y-35222347D01*
X-13405462Y-35218000D01*
X-11956538Y-35218000D01*
X-11912396Y-35222347D01*
X-11912396Y-35222347D01*
G37*
G36*
X-11912396Y-32422347D02*
G01*
X-11875856Y-32433432D01*
X-11842179Y-32451433D01*
X-11812659Y-32475659D01*
X-11788433Y-32505179D01*
X-11770432Y-32538856D01*
X-11759347Y-32575396D01*
X-11755000Y-32619538D01*
X-11755000Y-33568462D01*
X-11759347Y-33612604D01*
X-11770432Y-33649144D01*
X-11788433Y-33682821D01*
X-11812659Y-33712341D01*
X-11842179Y-33736567D01*
X-11875856Y-33754568D01*
X-11912396Y-33765653D01*
X-11956538Y-33770000D01*
X-13405462Y-33770000D01*
X-13449604Y-33765653D01*
X-13486144Y-33754568D01*
X-13519821Y-33736567D01*
X-13549341Y-33712341D01*
X-13573567Y-33682821D01*
X-13591568Y-33649144D01*
X-13602653Y-33612604D01*
X-13607000Y-33568462D01*
X-13607000Y-32619538D01*
X-13602653Y-32575396D01*
X-13591568Y-32538856D01*
X-13573567Y-32505179D01*
X-13549341Y-32475659D01*
X-13519821Y-32451433D01*
X-13486144Y-32433432D01*
X-13449604Y-32422347D01*
X-13405462Y-32418000D01*
X-11956538Y-32418000D01*
X-11912396Y-32422347D01*
X-11912396Y-32422347D01*
G37*
G36*
X-17750928Y-27837999D02*
G01*
X-17750928Y-27838000D01*
X-17885228Y-28931785D01*
X-20765596Y-28578121D01*
X-20674720Y-27837999D01*
X-20631296Y-27484335D01*
X-17750928Y-27837999D01*
X-17750928Y-27837999D01*
G37*
G36*
X-16581670Y-26520677D02*
G01*
X-16679410Y-27316699D01*
X-17773196Y-27182399D01*
X-17675456Y-26386377D01*
X-16581670Y-26520677D01*
X-16581670Y-26520677D01*
G37*
G36*
X10186000Y-26653000D02*
G01*
X8384000Y-26653000D01*
X8384000Y-25901000D01*
X10186000Y-25901000D01*
X10186000Y-26653000D01*
X10186000Y-26653000D01*
G37*
G36*
X17486000Y-26653000D02*
G01*
X15684000Y-26653000D01*
X15684000Y-25901000D01*
X17486000Y-25901000D01*
X17486000Y-26653000D01*
X17486000Y-26653000D01*
G37*
G36*
X-18824501Y-25390296D02*
G01*
X-18776105Y-25399923D01*
X-18738339Y-25415566D01*
X-18684930Y-25437689D01*
X-18684929Y-25437690D01*
X-18602872Y-25492518D01*
X-18533089Y-25562301D01*
X-18533088Y-25562303D01*
X-18478260Y-25644359D01*
X-18440494Y-25735535D01*
X-18421241Y-25832325D01*
X-18421241Y-25931015D01*
X-18440494Y-26027805D01*
X-18478260Y-26118981D01*
X-18478261Y-26118982D01*
X-18533089Y-26201039D01*
X-18602872Y-26270822D01*
X-18644179Y-26298422D01*
X-18684930Y-26325651D01*
X-18738339Y-26347774D01*
X-18776105Y-26363417D01*
X-18824501Y-26373044D01*
X-18872896Y-26382670D01*
X-18971586Y-26382670D01*
X-19019981Y-26373044D01*
X-19068377Y-26363417D01*
X-19106143Y-26347774D01*
X-19159552Y-26325651D01*
X-19200303Y-26298422D01*
X-19241610Y-26270822D01*
X-19311393Y-26201039D01*
X-19366221Y-26118982D01*
X-19366222Y-26118981D01*
X-19403988Y-26027805D01*
X-19423241Y-25931015D01*
X-19423241Y-25832325D01*
X-19403988Y-25735535D01*
X-19366222Y-25644359D01*
X-19311394Y-25562303D01*
X-19311393Y-25562301D01*
X-19241610Y-25492518D01*
X-19159553Y-25437690D01*
X-19159552Y-25437689D01*
X-19106143Y-25415566D01*
X-19068377Y-25399923D01*
X-19019981Y-25390296D01*
X-18971586Y-25380670D01*
X-18872896Y-25380670D01*
X-18824501Y-25390296D01*
X-18824501Y-25390296D01*
G37*
G36*
X17486000Y-25383000D02*
G01*
X15684000Y-25383000D01*
X15684000Y-24631000D01*
X17486000Y-24631000D01*
X17486000Y-25383000D01*
X17486000Y-25383000D01*
G37*
G36*
X10186000Y-25383000D02*
G01*
X8384000Y-25383000D01*
X8384000Y-24631000D01*
X10186000Y-24631000D01*
X10186000Y-25383000D01*
X10186000Y-25383000D01*
G37*
G36*
X-16216062Y-23543039D02*
G01*
X-16313802Y-24339061D01*
X-17407588Y-24204761D01*
X-17309848Y-23408739D01*
X-16216062Y-23543039D01*
X-16216062Y-23543039D01*
G37*
G36*
X17486000Y-24113000D02*
G01*
X15684000Y-24113000D01*
X15684000Y-23361000D01*
X17486000Y-23361000D01*
X17486000Y-24113000D01*
X17486000Y-24113000D01*
G37*
G36*
X10186000Y-24113000D02*
G01*
X8384000Y-24113000D01*
X8384000Y-23361000D01*
X10186000Y-23361000D01*
X10186000Y-24113000D01*
X10186000Y-24113000D01*
G37*
G36*
X-18458893Y-22412659D02*
G01*
X-18410497Y-22422285D01*
X-18372731Y-22437928D01*
X-18319322Y-22460051D01*
X-18319321Y-22460052D01*
X-18237264Y-22514880D01*
X-18167481Y-22584663D01*
X-18167480Y-22584665D01*
X-18112652Y-22666721D01*
X-18074886Y-22757897D01*
X-18055633Y-22854687D01*
X-18055633Y-22953377D01*
X-18074886Y-23050167D01*
X-18112652Y-23141343D01*
X-18112653Y-23141344D01*
X-18167481Y-23223401D01*
X-18237264Y-23293184D01*
X-18278571Y-23320784D01*
X-18319322Y-23348013D01*
X-18350676Y-23361000D01*
X-18410497Y-23385779D01*
X-18458893Y-23395405D01*
X-18507288Y-23405032D01*
X-18605978Y-23405032D01*
X-18654373Y-23395406D01*
X-18702769Y-23385779D01*
X-18762590Y-23361000D01*
X-18793944Y-23348013D01*
X-18834695Y-23320784D01*
X-18876002Y-23293184D01*
X-18945785Y-23223401D01*
X-19000613Y-23141344D01*
X-19000614Y-23141343D01*
X-19038380Y-23050167D01*
X-19057633Y-22953377D01*
X-19057633Y-22854687D01*
X-19038380Y-22757897D01*
X-19000614Y-22666721D01*
X-18945786Y-22584665D01*
X-18945785Y-22584663D01*
X-18876002Y-22514880D01*
X-18793945Y-22460052D01*
X-18793944Y-22460051D01*
X-18740535Y-22437928D01*
X-18702769Y-22422285D01*
X-18654373Y-22412659D01*
X-18605978Y-22403032D01*
X-18507288Y-22403032D01*
X-18458893Y-22412659D01*
X-18458893Y-22412659D01*
G37*
G36*
X-16033258Y-22054219D02*
G01*
X-16130998Y-22850241D01*
X-17224784Y-22715941D01*
X-17127044Y-21919919D01*
X-16033258Y-22054219D01*
X-16033258Y-22054219D01*
G37*
G36*
X10186000Y-22843000D02*
G01*
X8384000Y-22843000D01*
X8384000Y-22091000D01*
X10186000Y-22091000D01*
X10186000Y-22843000D01*
X10186000Y-22843000D01*
G37*
G36*
X17486000Y-22843000D02*
G01*
X15684000Y-22843000D01*
X15684000Y-22091000D01*
X17486000Y-22091000D01*
X17486000Y-22843000D01*
X17486000Y-22843000D01*
G37*
G36*
X-16782066Y-19947257D02*
G01*
X-16782066Y-19947258D01*
X-16916366Y-21041043D01*
X-19796734Y-20687379D01*
X-19705858Y-19947257D01*
X-19662434Y-19593593D01*
X-16782066Y-19947257D01*
X-16782066Y-19947257D01*
G37*
G36*
X-5998000Y-17026000D02*
G01*
X-8100000Y-17026000D01*
X-8100000Y-14924000D01*
X-5998000Y-14924000D01*
X-5998000Y-17026000D01*
X-5998000Y-17026000D01*
G37*
G36*
X9122000Y-17026000D02*
G01*
X7020000Y-17026000D01*
X7020000Y-14924000D01*
X9122000Y-14924000D01*
X9122000Y-17026000D01*
X9122000Y-17026000D01*
G37*
G36*
X16715604Y-11603347D02*
G01*
X16752144Y-11614432D01*
X16785821Y-11632433D01*
X16815341Y-11656659D01*
X16839567Y-11686179D01*
X16857568Y-11719856D01*
X16868653Y-11756396D01*
X16873000Y-11800538D01*
X16873000Y-12749462D01*
X16868653Y-12793604D01*
X16857568Y-12830144D01*
X16839567Y-12863821D01*
X16815341Y-12893341D01*
X16785821Y-12917567D01*
X16752144Y-12935568D01*
X16715604Y-12946653D01*
X16671462Y-12951000D01*
X15222538Y-12951000D01*
X15178396Y-12946653D01*
X15141856Y-12935568D01*
X15108179Y-12917567D01*
X15078659Y-12893341D01*
X15054433Y-12863821D01*
X15036432Y-12830144D01*
X15025347Y-12793604D01*
X15021000Y-12749462D01*
X15021000Y-11800538D01*
X15025347Y-11756396D01*
X15036432Y-11719856D01*
X15054433Y-11686179D01*
X15078659Y-11656659D01*
X15108179Y-11632433D01*
X15141856Y-11614432D01*
X15178396Y-11603347D01*
X15222538Y-11599000D01*
X16671462Y-11599000D01*
X16715604Y-11603347D01*
X16715604Y-11603347D01*
G37*
G36*
X-7568396Y-11471347D02*
G01*
X-7531856Y-11482432D01*
X-7498179Y-11500433D01*
X-7468659Y-11524659D01*
X-7444433Y-11554179D01*
X-7426432Y-11587856D01*
X-7415347Y-11624396D01*
X-7411000Y-11668538D01*
X-7411000Y-12617462D01*
X-7415347Y-12661604D01*
X-7426432Y-12698144D01*
X-7444433Y-12731821D01*
X-7468659Y-12761341D01*
X-7498179Y-12785567D01*
X-7531856Y-12803568D01*
X-7568396Y-12814653D01*
X-7612538Y-12819000D01*
X-9061462Y-12819000D01*
X-9105604Y-12814653D01*
X-9142144Y-12803568D01*
X-9175821Y-12785567D01*
X-9205341Y-12761341D01*
X-9229567Y-12731821D01*
X-9247568Y-12698144D01*
X-9258653Y-12661604D01*
X-9263000Y-12617462D01*
X-9263000Y-11668538D01*
X-9258653Y-11624396D01*
X-9247568Y-11587856D01*
X-9229567Y-11554179D01*
X-9205341Y-11524659D01*
X-9175821Y-11500433D01*
X-9142144Y-11482432D01*
X-9105604Y-11471347D01*
X-9061462Y-11467000D01*
X-7612538Y-11467000D01*
X-7568396Y-11471347D01*
X-7568396Y-11471347D01*
G37*
G36*
X16715604Y-8803347D02*
G01*
X16752144Y-8814432D01*
X16785821Y-8832433D01*
X16815341Y-8856659D01*
X16839567Y-8886179D01*
X16857568Y-8919856D01*
X16868653Y-8956396D01*
X16873000Y-9000538D01*
X16873000Y-9949462D01*
X16868653Y-9993604D01*
X16857568Y-10030144D01*
X16839567Y-10063821D01*
X16815341Y-10093341D01*
X16785821Y-10117567D01*
X16752144Y-10135568D01*
X16715604Y-10146653D01*
X16671462Y-10151000D01*
X15222538Y-10151000D01*
X15178396Y-10146653D01*
X15141856Y-10135568D01*
X15108179Y-10117567D01*
X15078659Y-10093341D01*
X15054433Y-10063821D01*
X15036432Y-10030144D01*
X15025347Y-9993604D01*
X15021000Y-9949462D01*
X15021000Y-9000538D01*
X15025347Y-8956396D01*
X15036432Y-8919856D01*
X15054433Y-8886179D01*
X15078659Y-8856659D01*
X15108179Y-8832433D01*
X15141856Y-8814432D01*
X15178396Y-8803347D01*
X15222538Y-8799000D01*
X16671462Y-8799000D01*
X16715604Y-8803347D01*
X16715604Y-8803347D01*
G37*
G36*
X-7568396Y-8671347D02*
G01*
X-7531856Y-8682432D01*
X-7498179Y-8700433D01*
X-7468659Y-8724659D01*
X-7444433Y-8754179D01*
X-7426432Y-8787856D01*
X-7415347Y-8824396D01*
X-7411000Y-8868538D01*
X-7411000Y-9817462D01*
X-7415347Y-9861604D01*
X-7426432Y-9898144D01*
X-7444433Y-9931821D01*
X-7468659Y-9961341D01*
X-7498179Y-9985567D01*
X-7531856Y-10003568D01*
X-7568396Y-10014653D01*
X-7612538Y-10019000D01*
X-9061462Y-10019000D01*
X-9105604Y-10014653D01*
X-9142144Y-10003568D01*
X-9175821Y-9985567D01*
X-9205341Y-9961341D01*
X-9229567Y-9931821D01*
X-9247568Y-9898144D01*
X-9258653Y-9861604D01*
X-9263000Y-9817462D01*
X-9263000Y-8868538D01*
X-9258653Y-8824396D01*
X-9247568Y-8787856D01*
X-9229567Y-8754179D01*
X-9205341Y-8724659D01*
X-9175821Y-8700433D01*
X-9142144Y-8682432D01*
X-9105604Y-8671347D01*
X-9061462Y-8667000D01*
X-7612538Y-8667000D01*
X-7568396Y-8671347D01*
X-7568396Y-8671347D01*
G37*
G36*
X-11541396Y9386653D02*
G01*
X-11504856Y9375568D01*
X-11471179Y9357567D01*
X-11441659Y9333341D01*
X-11417433Y9303821D01*
X-11399432Y9270144D01*
X-11388347Y9233604D01*
X-11384000Y9189462D01*
X-11384000Y8240538D01*
X-11388347Y8196396D01*
X-11399432Y8159856D01*
X-11417433Y8126179D01*
X-11441659Y8096659D01*
X-11471179Y8072433D01*
X-11504856Y8054432D01*
X-11541396Y8043347D01*
X-11585538Y8039000D01*
X-13034462Y8039000D01*
X-13078604Y8043347D01*
X-13115144Y8054432D01*
X-13148821Y8072433D01*
X-13178341Y8096659D01*
X-13202567Y8126179D01*
X-13220568Y8159856D01*
X-13231653Y8196396D01*
X-13236000Y8240538D01*
X-13236000Y9189462D01*
X-13231653Y9233604D01*
X-13220568Y9270144D01*
X-13202567Y9303821D01*
X-13178341Y9333341D01*
X-13148821Y9357567D01*
X-13115144Y9375568D01*
X-13078604Y9386653D01*
X-13034462Y9391000D01*
X-11585538Y9391000D01*
X-11541396Y9386653D01*
X-11541396Y9386653D01*
G37*
G36*
X-11541396Y12186653D02*
G01*
X-11504856Y12175568D01*
X-11471179Y12157567D01*
X-11441659Y12133341D01*
X-11417433Y12103821D01*
X-11399432Y12070144D01*
X-11388347Y12033604D01*
X-11384000Y11989462D01*
X-11384000Y11040538D01*
X-11388347Y10996396D01*
X-11399432Y10959856D01*
X-11417433Y10926179D01*
X-11441659Y10896659D01*
X-11471179Y10872433D01*
X-11504856Y10854432D01*
X-11541396Y10843347D01*
X-11585538Y10839000D01*
X-13034462Y10839000D01*
X-13078604Y10843347D01*
X-13115144Y10854432D01*
X-13148821Y10872433D01*
X-13178341Y10896659D01*
X-13202567Y10926179D01*
X-13220568Y10959856D01*
X-13231653Y10996396D01*
X-13236000Y11040538D01*
X-13236000Y11989462D01*
X-13231653Y12033604D01*
X-13220568Y12070144D01*
X-13202567Y12103821D01*
X-13178341Y12133341D01*
X-13148821Y12157567D01*
X-13115144Y12175568D01*
X-13078604Y12186653D01*
X-13034462Y12191000D01*
X-11585538Y12191000D01*
X-11541396Y12186653D01*
X-11541396Y12186653D01*
G37*
G36*
X14545604Y13780653D02*
G01*
X14582144Y13769568D01*
X14615821Y13751567D01*
X14645341Y13727341D01*
X14669567Y13697821D01*
X14687568Y13664144D01*
X14698653Y13627604D01*
X14703000Y13583462D01*
X14703000Y12634538D01*
X14698653Y12590396D01*
X14687568Y12553856D01*
X14669567Y12520179D01*
X14645341Y12490659D01*
X14615821Y12466433D01*
X14582144Y12448432D01*
X14545604Y12437347D01*
X14501462Y12433000D01*
X13052538Y12433000D01*
X13008396Y12437347D01*
X12971856Y12448432D01*
X12938179Y12466433D01*
X12908659Y12490659D01*
X12884433Y12520179D01*
X12866432Y12553856D01*
X12855347Y12590396D01*
X12851000Y12634538D01*
X12851000Y13583462D01*
X12855347Y13627604D01*
X12866432Y13664144D01*
X12884433Y13697821D01*
X12908659Y13727341D01*
X12938179Y13751567D01*
X12971856Y13769568D01*
X13008396Y13780653D01*
X13052538Y13785000D01*
X14501462Y13785000D01*
X14545604Y13780653D01*
X14545604Y13780653D01*
G37*
G36*
X14545604Y16580653D02*
G01*
X14582144Y16569568D01*
X14615821Y16551567D01*
X14645341Y16527341D01*
X14669567Y16497821D01*
X14687568Y16464144D01*
X14698653Y16427604D01*
X14703000Y16383462D01*
X14703000Y15434538D01*
X14698653Y15390396D01*
X14687568Y15353856D01*
X14669567Y15320179D01*
X14645341Y15290659D01*
X14615821Y15266433D01*
X14582144Y15248432D01*
X14545604Y15237347D01*
X14501462Y15233000D01*
X13052538Y15233000D01*
X13008396Y15237347D01*
X12971856Y15248432D01*
X12938179Y15266433D01*
X12908659Y15290659D01*
X12884433Y15320179D01*
X12866432Y15353856D01*
X12855347Y15390396D01*
X12851000Y15434538D01*
X12851000Y16383462D01*
X12855347Y16427604D01*
X12866432Y16464144D01*
X12884433Y16497821D01*
X12908659Y16527341D01*
X12938179Y16551567D01*
X12971856Y16569568D01*
X13008396Y16580653D01*
X13052538Y16585000D01*
X14501462Y16585000D01*
X14545604Y16580653D01*
X14545604Y16580653D01*
G37*
G36*
X-857000Y43588000D02*
G01*
X-8759000Y43588000D01*
X-8759000Y49650000D01*
X-857000Y49650000D01*
X-857000Y43588000D01*
X-857000Y43588000D01*
G37*
G36*
X-15362000Y43788000D02*
G01*
X-18064000Y43788000D01*
X-18064000Y49450000D01*
X-15362000Y49450000D01*
X-15362000Y43788000D01*
X-15362000Y43788000D01*
G37*
G36*
X8448000Y43788000D02*
G01*
X5746000Y43788000D01*
X5746000Y49450000D01*
X8448000Y49450000D01*
X8448000Y43788000D01*
X8448000Y43788000D01*
G37*
M02*
