M48
; DRILL file {KiCad (5.1.0-0)} date Tuesday, November 19, 2019 at 07:36:31 PM
; FORMAT={-:-/ absolute / inch / decimal}
; #@! TF.CreationDate,2019-11-19T19:36:31-07:00
; #@! TF.GenerationSoftware,Kicad,Pcbnew,(5.1.0-0)
; #@! TF.FileFunction,Plated,1,2,PTH
FMAT,2
INCH
T1C0.0157
T2C0.0472
%
G90
G05
T1
X-0.6244Y-0.3155
X-0.5915Y-2.2526
X-0.5509Y-1.3513
X-0.5434Y0.408
X-0.4783Y-2.3271
X-0.4525Y-1.4625
X-0.4226Y0.2807
X-0.3886Y-0.4165
X-0.3155Y-2.363
X-0.2811Y-0.5275
X-0.2753Y-1.296
X-0.2402Y0.1999
X-0.2103Y-1.5025
X-0.088Y-0.7161
X-0.0068Y-0.9654
X0.0512Y0.9231
X0.1554Y-1.4449
X0.3551Y-1.5985
X0.4585Y-1.6117
X0.4601Y-0.8835
X0.482Y0.5807
X0.5756Y-0.8849
X0.5846Y-0.3219
X0.5948Y0.4584
X0.6021Y-1.4836
X0.6564Y0.0411
X0.6878Y-0.5478
X0.7236Y0.5952
T2
X-0.2299Y2.3762
T0
M30
